<?xml version="1.0" encoding="utf-8"?>
<!-- Generator: Adobe Illustrator 25.0.0, SVG Export Plug-In . SVG Version: 6.00 Build 0)  -->
<svg version="1.1" id="katman_1" xmlns="http://www.w3.org/2000/svg" xmlns:xlink="http://www.w3.org/1999/xlink" x="0px" y="0px"
	 width="700px" height="700px" viewBox="0 0 700 700" style="enable-background:new 0 0 700 700;" xml:space="preserve">
<style type="text/css">
	.st0{fill:none;}
	.st1{fill:#FE6798;}
	.st2{fill:#FFFFFF;}
	.st3{fill:#314360;}
	.st4{fill:#69BBDE;}
	.st5{fill:#567CAA;}
	.st6{fill:#20202D;}
</style>
<g id="XMLID_2_">
	<g>
		<path class="st0" d="M331.5,512.3c7.3,3.6,14.8,6,22.6,7.4C346.4,518.3,338.8,515.9,331.5,512.3z"/>
		<path class="st0" d="M464.4,551.7c-0.6-0.1-1.3,0.1-2.1,0.9C463.1,551.8,463.8,551.6,464.4,551.7z"/>
		<path class="st0" d="M250.5,570.3c-3.7-3.9-5.9-8.7-5.9-14.6C244.5,561.6,246.7,566.5,250.5,570.3z"/>
		<path class="st0" d="M336.1,281.2c-0.3,0-0.7-0.2-1-0.7c-1.4-1.7,0.4-2.7,1.4-3.8c6.6-7.5,14.8-12.4,24.1-16c-0.1,0-0.2,0-0.2,0
			c-9.3,3.6-17.5,8.5-24.1,16c-1,1.1-2.8,2.1-1.5,3.8C335.2,281,335.6,281.2,336.1,281.2z"/>
		<path class="st0" d="M329.5,511.3c-0.7-0.3-1.4-0.8-2.1-1.1c0.6,0.3,1.3,0.7,1.9,1C329.4,511.2,329.4,511.3,329.5,511.3z"/>
		<path class="st0" d="M274.9,563.8c-0.4-8.6-7-17.4-15.2-20.1C267.8,546.4,274.5,555.1,274.9,563.8z"/>
		<path class="st0" d="M379.6,267.2c4.2,0.2,8.4,0.9,12.4,2.3c8.1,2.8,16.8,9.4,20.3,18.9c-3.4-9.5-12.2-16.1-20.2-18.9
			C388.1,268.1,383.8,267.3,379.6,267.2z"/>
		<path class="st0" d="M443.6,432.7C443.6,432.7,443.7,432.7,443.6,432.7c-7.1-8.5-7.9-9.3-9.2-19.3c0-0.1,0-0.1,0-0.2
			c0,0.1,0,0.2,0,0.3C435.7,423.5,436.4,424.3,443.6,432.7z"/>
		<path class="st0" d="M281.3,525.3c0-0.1,0.1-0.2,0.1-0.2c-3.7,0.6-6.5,0.8-8.7,0.5C274.8,526,277.6,525.8,281.3,525.3z"/>
		<path class="st0" d="M267.7,528.9c0.5,0.1,1.1,0.4,1.6,0.6c1.2,0.4,2.5,0.7,3.7,0.8c-1-0.1-2-0.4-3-0.7
			C269.2,529.4,268.4,528.9,267.7,528.9z"/>
		<path class="st0" d="M458,551.7c-0.7,1.2-1.2,2.4-1.7,3.7C456.8,554.2,457.4,552.9,458,551.7z"/>
		<path class="st0" d="M257.5,378.9C257.5,378.9,257.5,378.9,257.5,378.9c-1.7-0.2-3.3-0.5-4.9-0.8
			C254.2,378.4,255.9,378.7,257.5,378.9z"/>
		<path class="st0" d="M180.8,324.1c-20.1-37.1-25.5-77-21.2-118.4c1.4-14.1,4.5-28,11.9-40.7c3.9-6.8,9.3-11.9,15.7-16.1
			c1.1-0.7,2-1.1,2.8-1.3c-0.9,0.1-1.8,0.6-2.9,1.3c-6.4,4.1-11.7,9.2-15.7,16.1c-7.4,12.7-10.5,26.6-11.9,40.7
			C155.2,247.1,160.6,287,180.8,324.1c9.8,18.3,22.7,32.5,39.2,42.1C203.6,356.6,190.7,342.3,180.8,324.1z"/>
		<path class="st0" d="M201.9,227.6c2.7,0.3,3.5,3.3,6,3.2C205.5,230.8,204.7,227.8,201.9,227.6L201.9,227.6z"/>
		<path class="st0" d="M236.7,373.9c2.5,0.9,5.1,1.7,7.8,2.4c2.1,0.5,4.3,1,6.5,1.5c-2.2-0.4-4.3-0.9-6.4-1.5
			C241.9,375.6,239.3,374.8,236.7,373.9z"/>
		<path class="st0" d="M253.8,542.9c-4.1,0.4-7,2.8-8.4,7C246.8,545.8,249.7,543.3,253.8,542.9z"/>
		<path class="st0" d="M408.6,611.9c-1.2,1-2.6,2.1-1.9,3.6C406,614,407.4,612.9,408.6,611.9z"/>
		<path class="st0" d="M409.2,611.3c1.3-1.2,3.1-1.5,4.1-1.6C412.3,609.8,410.5,610,409.2,611.3z"/>
		<path class="st0" d="M256.3,575.1c3.7,2.4,7.8,4.1,12.5,1.9C264.1,579.2,260,577.5,256.3,575.1z"/>
		<path class="st0" d="M422.3,616.7c-0.1,0.6-0.4,1.2-1,1.8C422,618,422.3,617.3,422.3,616.7z"/>
		<path class="st0" d="M316,394.3c-0.1,0-0.2,0-0.2,0c1.2,0.2,2.5,0.4,3.7,0.5c-1-0.1-2.1-0.2-3.1-0.4
			C316.2,394.3,316.1,394.3,316,394.3z"/>
		<path class="st0" d="M342.6,263.6c6.3-6.4,14.2-9.3,23-9.4c0,0-0.1,0-0.1,0c-8.9,0.1-16.7,3-23.1,9.4c-1,1-2.5,2.3-1,3.9
			c0.4,0.4,0.8,0.5,1.2,0.5c-0.3,0-0.7-0.2-1-0.5C340,266,341.6,264.6,342.6,263.6z"/>
		<path class="st0" d="M420.8,416.9c0,0.2,0,0.4,0,0.5c0-0.1,0-0.2,0-0.3c0.2-2.6-1.3-6.1,2.4-7.7c1-0.5,1.9-0.9,2.9-1.4
			s2-0.9,3-1.2c2.8-0.9,4.4,0.3,4.8,3.3c0,0.2,0,0.3,0.1,0.5c0-0.2,0-0.4-0.1-0.6c-0.4-3-2-4.1-4.8-3.3c-1.1,0.3-2,0.8-3,1.2
			c-1,0.5-1.9,1-2.9,1.4C419.4,410.9,420.9,414.4,420.8,416.9z"/>
		<path class="st0" d="M303.8,390.4c0.5,0.1,1.1,0.2,1.8,0.4c-0.1,0-0.1-0.1-0.2-0.1C304.8,390.5,304.3,390.4,303.8,390.4z"/>
		<path class="st0" d="M413.7,195.3c-0.3,0.2-0.6,0.5-1,0.7C413.1,195.8,413.4,195.5,413.7,195.3z"/>
		<path class="st0" d="M363.8,377.5C363.8,377.5,363.8,377.4,363.8,377.5c-1.1-1-2-1.7-2.7-2.2c-0.9-0.5-1.8-0.7-2.7-0.5
			c1.5-0.2,3,0.6,4.8,2.3c7,6.6,14.8,12,24.2,14.8c2.9,0.9,5.8,1.4,8.7,1.5c-2.8-0.1-5.7-0.6-8.6-1.5
			C378.3,389,370.7,383.8,363.8,377.5z"/>
		<path class="st0" d="M433.6,193.6c17.2,5.8,30.4,15.2,40.2,27.5c8.7,10.9,14.8,24,18.6,39c2,7.8,1.9,16.2,0.8,24.4
			c1.2-8.2,1.2-16.7-0.8-24.5c-3-11.9-7.5-22.6-13.5-32c-1.7-2.5-3.4-4.9-5.2-7.1c-0.5-0.6-1-1.2-1.5-1.8c-0.2-0.2-0.4-0.4-0.5-0.6
			C462,207.4,449.5,198.9,433.6,193.6c-0.3-0.2-0.7-0.3-1-0.4c0,0-0.1,0-0.2,0c-0.8-0.2-1.5-0.4-2.2-0.5
			C431.3,192.9,432.5,193.2,433.6,193.6z"/>
		<path class="st0" d="M292.7,256.3c-0.4-0.4-0.9-0.8-1.3-1.2C291.8,255.5,292.2,255.9,292.7,256.3z"/>
		<path class="st0" d="M369.8,420.3c3.2-0.4,6.4-0.8,9.6-1.3c0.4-0.1,0.8-0.2,1.2-0.2c-0.4,0.1-0.9,0.2-1.3,0.2
			C376.2,419.5,373,420,369.8,420.3z"/>
		<path class="st0" d="M485.3,315.1c-0.4,0.6-0.8,1.5-1,2.6c-0.7,2.8-1.8,5.4-3.1,7.8c1.4-2.5,2.5-5.2,3.2-8
			C484.7,316.5,485,315.8,485.3,315.1z"/>
		<path class="st0" d="M432.5,347.1c-0.2,0.7-0.4,1.4-0.5,2.3c-1,7.9-2.8,15.5-6.2,22.6c3.4-7.2,5.3-14.9,6.3-22.8
			C432.2,348.4,432.3,347.7,432.5,347.1z"/>
		<path class="st0" d="M299.7,391.5c-0.2,0.4-0.4,0.9-0.6,1.4c0,0.1-0.1,0.2-0.1,0.4c0-0.1,0.1-0.1,0.1-0.2c0.1-0.2,0.1-0.4,0.2-0.6
			C299.4,392.1,299.6,391.8,299.7,391.5z"/>
		<path class="st0" d="M390.4,401.5c5.8,4.9,12.1,5.4,18.8,3.2C402.4,406.8,396.1,406.4,390.4,401.5z"/>
		<path class="st0" d="M297.7,395.2C297.8,395.2,297.8,395.2,297.7,395.2C297.8,395.1,297.8,395.1,297.7,395.2
			C297.8,395.1,297.8,395.2,297.7,395.2z"/>
		<path class="st0" d="M406.4,204.5c0.4-0.8,0.8-1.6,1.3-2.4c1.4-2.5,3.1-4.5,5-6.1C410.3,198.1,408.1,200.9,406.4,204.5z"/>
		<path class="st0" d="M378.2,264.4c-8.7-0.1-16.7,1.7-24,5C361.5,266.1,369.5,264.3,378.2,264.4z"/>
		<path class="st0" d="M426.2,385.8c-8.4,12.9-19.8,18.7-35.9,14.6C406.4,404.6,417.8,398.8,426.2,385.8z"/>
		<path class="st0" d="M372.3,376.4c2.6-0.2,3-4,3.4-6.7c0.2-0.7,0.1-1.5,0.2-3.2c-0.2-0.8,0.2-3.2-0.8-4c-2-1.5-3.1,1.4-4.8,2.1
			c-1.3,0.6-2.6,1.6-3.9,2.4c-1.3,0.9-2.2,2.3-1.3,3.4C367,373,369,376.7,372.3,376.4z M366.9,367c1.3-0.8,2.6-1.8,4-2.5
			c1.3-0.6,2.2-2.8,3.8-2c1.8,1,0.6,3.2,1,4.8c-0.1,1,0,2-0.2,2.9c-0.5,2.4-0.9,6.1-3.5,6c-3-0.1-5.1-3.3-6.7-5.9
			C364.4,369,365.6,367.8,366.9,367z"/>
		<path class="st0" d="M386.5,385.4c-2.2-1.5-1.8-3.3-0.1-5.5C384.7,382.2,384.3,384,386.5,385.4z"/>
		<path class="st0" d="M423.1,356.2c4.2-1.3,3.7-5.4,4.4-8.6c0.5-2.4-0.2-4.4-3.9-3.7c-2.3,1.3-7-1.5-8.1,3.5
			C415.1,349.6,421.4,356.7,423.1,356.2z M415.8,347c1.6-4.2,5.7-1.7,8-2.8c3.4-0.6,4,1.2,3.5,3.3c-0.7,3.2-0.2,7.3-4.3,8.5
			C421.3,356.5,415.1,348.8,415.8,347z"/>
		<path class="st0" d="M402,221.7c-0.1-1.6,0.1-3.3,0.4-5.1c-0.3,1.8-0.5,3.4-0.5,5c1.1,11.4,2,20.7,4.1,29.8c1,4.1,1.9,8.2,3,12.2
			c-1-4-2-8.1-2.9-12.1C403.9,242.4,403.1,233.1,402,221.7z"/>
		<path class="st0" d="M418.9,367.6c1.7,0.6,2.3,1.4,2.4,2.4C421.2,369,420.6,368.1,418.9,367.6c-2.6-1-6.1-1.2-8.3,0.2
			C412.8,366.5,416.3,366.7,418.9,367.6z"/>
		<path class="st0" d="M400.6,453.5c0.1-0.3,0.1-0.8,0.2-1.2C400.7,452.7,400.7,453.1,400.6,453.5c-1.4,4.8-1.2,9.5-0.1,14.1
			C399.5,463,399.2,458.3,400.6,453.5z"/>
		<path class="st0" d="M337.5,461.4c8.6-6.8,18.6-9.8,29.2-10.7c8-0.7,15.8,1.5,23.4,4c1.5,0.5,2.2,1.2,2.6,2.2
			c-0.4-1-1.2-1.9-2.6-2.3c-7.6-2.4-15.4-4.7-23.4-4c-10.6,0.9-20.6,3.9-29.2,10.7c-1.3,1.1-3,2.9-4.5,0.8c-0.2-0.2-0.3-0.4-0.3-0.6
			c0.1,0.2,0.2,0.5,0.3,0.7C334.6,464.3,336.3,462.4,337.5,461.4z"/>
		<path class="st0" d="M324.2,444.9c0.4-5.7,0.6-11.3-0.4-16.9c-0.1-0.6-0.2-1.1-0.2-1.5c-0.2-2.2,0.7-2.8,3.9-2.5
			c10.4,0.9,20.7,3.1,31.4,2.5c2.3-0.1,3.7,0.8,4.7,2.2c1.4,2.2,1.8,5.6,2.4,8.2c0.2,0.8,0.3,1.5,0.4,2.2c0-0.7-0.2-1.5-0.4-2.3
			c-0.6-2.5-0.9-6-2.4-8.2c-0.9-1.4-2.4-2.3-4.7-2.2c-10.6,0.5-20.9-1.6-31.4-2.5c-3.1-0.3-4.1,0.2-4.1,2.3c0,0.4,0.1,0.9,0.2,1.5
			c1.1,5.6,0.9,11.2,0.4,16.9c-0.9,12.4-3.4,24.7-3.5,37.2c0,7.4,0.9,12.6,3.5,16.7c-2.5-4.1-3.3-9.2-3.3-16.4
			C320.7,469.6,323.2,457.3,324.2,444.9z"/>
		<path class="st0" d="M393.3,460.7c0-0.2,0-0.3,0-0.5c0-0.4-0.1-0.8-0.1-1.2c0,0.4,0.1,0.9,0.1,1.3
			C393.3,460.4,393.3,460.6,393.3,460.7z"/>
		<path class="st0" d="M437.2,404.9c0-0.1,0.1-0.4,0.2-0.5c3.9-3.6,8.8-5.7,13.1-8.7c4.2-3,7.8-6,14.1-5c2.7,0.4,5.5,1,8.2,1.6
			c11.7,2.7,22.8,6.9,33.6,12.5c8.3,4.3,14.1,9.6,17.8,15.4c-3.7-5.9-9.6-11.2-17.9-15.6c-10.8-5.6-21.9-9.8-33.6-12.5
			c-2.7-0.6-5.4-1.2-8.2-1.6c-6.2-1-9.9,2-14.1,5c-4.3,3.1-9.2,5.1-13.1,8.7c-0.2,0.1-0.2,0.3-0.2,0.5c0.1,2.7,0.2,5.5,0.5,8.2
			c0.4,3.3,1.1,6.6,2.9,9.5c-1.7-2.9-2.4-6-2.8-9.3C437.4,410.4,437.3,407.6,437.2,404.9z"/>
		<path class="st0" d="M402.8,451.3c3.9,2.6,4.7,1.8,4.8,0.1C407.5,453,406.6,453.8,402.8,451.3c-0.9-0.7-1.4-0.5-1.7,0
			C401.4,450.9,401.9,450.7,402.8,451.3z"/>
		<path class="st0" d="M420.4,463.6c0.2,4.5,3.8,7.1,8.1,6.7c2.7-0.2,3.9,0.1,4.2,0.9c-0.2-0.9-1.3-1.3-4.2-1
			C424.2,470.6,420.7,468,420.4,463.6c-0.5-8.9-4.7-15.2-12.6-20.5c0,0.2,0,0.3,0,0.5c0-0.1,0-0.2,0-0.4
			C415.7,448.5,419.9,454.8,420.4,463.6z"/>
		<path class="st0" d="M407.7,444.5c0-0.3,0.1-0.6,0.1-0.9C407.7,443.9,407.7,444.2,407.7,444.5z"/>
		<path class="st0" d="M403.1,479.6c0.7-0.3,1.1-0.7,1.2-1.1C404.1,478.8,403.8,479.2,403.1,479.6c-1.7,0.7-3.1-1.1-4.2-2.5
			c-0.6-0.8-1.2-1.6-1.7-2.4c0.5,0.9,1.1,1.7,1.7,2.5C400,478.6,401.3,480.4,403.1,479.6z"/>
		<path class="st0" d="M452.7,427.1c9.1-9.9,21.5-11.9,34-13.4c2.7-0.3,5.5-0.2,8.2-0.3c1.1-0.1,2.5-0.3,2.7-1.7
			c0.1-0.4,0-0.7-0.1-0.9c0.1,0.2,0.1,0.4,0,0.7c-0.2,1.4-1.5,1.6-2.7,1.7c-2.7,0.1-5.5,0-8.2,0.3c-12.5,1.5-24.9,3.5-34,13.4
			c-3.5,3.9-4.7,5.6-3.4,8C448.1,432.5,449.2,430.8,452.7,427.1z"/>
		<path class="st0" d="M371.5,440.6c0.1-0.3,0.1-0.7,0.1-1C371.6,439.9,371.5,440.2,371.5,440.6c-0.3,1.8-0.1,3,0.6,3.8
			C371.5,443.6,371.2,442.4,371.5,440.6z"/>
		<path class="st0" d="M439.1,471.2c1.9-2.8,4.6-5.1,5.5-8.7c0.5,0.3,0.8,0.6,1.1,1c-0.3-0.4-0.7-0.8-1.2-1.2
			c-1,3.6-3.6,5.9-5.5,8.7c-0.9,1.3-2.2,3-1.4,4.3C437,474,438.2,472.5,439.1,471.2z"/>
		<path class="st0" d="M457.1,454.8c1.7-0.1,1.9-1.8,1.9-3.1c-0.1-3.5-1.4-6.5-3.4-9.1c1.8,2.6,3.2,5.4,3.3,8.9
			c0.1,1.3-0.1,3-1.9,3.1c-0.7,0-1.1-0.2-1.3-0.6C455.9,454.5,456.3,454.8,457.1,454.8z"/>
		<path class="st0" d="M526,423.2c-0.3-0.7-0.7-1.3-1.1-2C525.3,421.9,525.6,422.6,526,423.2z"/>
		<path class="st0" d="M407.4,447.4C407.4,447.4,407.4,447.5,407.4,447.4c0-0.2,0-0.5,0.1-0.8C407.5,446.9,407.4,447.1,407.4,447.4z
			"/>
		<path class="st0" d="M440.6,481.2c1.2-1,1.5-2.2,0.9-3.1c0.5,0.9,0.2,2-1,2.9c-1.4,1.3-2.9,2.7-2,4.3
			C437.8,483.8,439.2,482.4,440.6,481.2z"/>
		<path class="st0" d="M430.3,438c2.7-0.6,4,1.2,5.6,2.1c1.1,0.6,2.4,1.8,3.2,1c5.8-5.8,8.2,0.9,11.2,3.4c1.4,1.2,2.7,2.7,3.6,4.5
			c-0.9-1.8-2.2-3.4-3.7-4.7c-3-2.5-5.3-9.2-11.2-3.4c-0.8,0.7-2.2-0.5-3.2-1c-1.6-0.9-2.9-2.7-5.6-2.1c0.3,2.7,0.6,5.4-0.8,8.3
			c0.1,0,0.1,0,0.2-0.1C430.9,443.2,430.6,440.5,430.3,438z"/>
		<path class="st0" d="M437.2,446.1c0.3,0.5,0.5,1.2,0.7,2c0.1,0.7,0.4,1.3,0.6,1.8c-0.2-0.5-0.4-1-0.5-1.6
			C437.8,447.3,437.5,446.6,437.2,446.1z"/>
		<path class="st0" d="M450.6,470.9c2-0.5,1.8-2.4,1.7-3.9c-0.2-2.4-0.7-4.5-1.6-6.4c0.9,1.8,1.4,3.9,1.5,6.2
			c0.1,1.5,0.3,3.5-1.7,3.9c-1.6,0.3-2-1.5-2.8-2.5c-0.1-0.1-0.2-0.2-0.2-0.3c0.1,0.2,0.2,0.3,0.3,0.5
			C448.6,469.4,449,471.2,450.6,470.9z"/>
		<path class="st0" d="M399.5,442c-0.1-0.4-0.2-0.8-0.4-1.3c-0.8-2.1-1.2-3.9-1.4-5.5c0.2,1.6,0.7,3.5,1.4,5.6
			C399.2,441.2,399.4,441.6,399.5,442z"/>
		<path class="st0" d="M368.7,424.2c3.7-0.7,7.4-1.3,11.1-1.9c3.2-0.6,6.4-1.1,9.6-1.8c6.5-1.4,13-3.4,19.8-5.3c0,0,0-0.1,0-0.1
			c-6.8,1.9-13.3,3.9-19.8,5.3c-3.2,0.7-6.4,1.3-9.6,1.8c-3.7,0.6-7.4,1.2-11.1,1.9c-1.6,0.3-2.1,1-2.1,1.8
			C366.7,425.1,367.2,424.5,368.7,424.2z"/>
		<path class="st1" d="M619.4,194.9c-2.9-3.5-7.1-2.6-10.8-1.9c-2.4,0.4-4.5,1.5-6.1,3.3c-5.2,5.9-6.4,5.2-9.4-2.6
			c-0.4-1.1-0.8-2.2-1.4-3.2c-3.9-6.3-11.3-6.9-16.2-1.2c-3.2,3.7-3.7,8.1-3.1,12.7c0,2.7-0.2,5.3,0.3,8.1c1.9,9.8,8,17.6,12.1,26.4
			c1,2.2,2.7,2,4.2,0.4c3.3-3.5,7.6-5.5,11.3-8.3c7.9-5.9,16.3-11.5,20-21.5C621.9,202.8,622.3,198.5,619.4,194.9z"/>
		<path class="st1" d="M433.9,285.5c6.4,5.2,13.4,9.8,20.1,14.8c3.5,2.5,4.5,2.5,7-1c4-5.5,7.9-11,11.8-16.5
			c6.6-9.1,11.6-18.8,10.9-29.4c0-8.7-1.8-13.5-5.5-18c-4.8-5.8-14.3-5.7-18.7-0.9c-3,3.3-5.7,6.8-8.1,10.5c-1.6,2.5-2.9,2.9-5,0.9
			c-0.8-0.8-1.6-1.6-2.5-2.4c-3.8-3.3-7.6-6.6-12.5-8.2c-5.3-1.7-11.9,0.7-14.5,5.5c-4,7.5-3.5,15.2-0.5,22.5
			C420.1,272.2,426.4,279.5,433.9,285.5z"/>
		<path class="st2" d="M423,356c4.1-1.2,3.6-5.3,4.3-8.5c0.5-2.1-0.1-3.9-3.5-3.3c-2.3,1.1-6.4-1.4-8,2.8
			C415.1,348.8,421.3,356.5,423,356z"/>
		<path class="st1" d="M386.5,385.4C386.6,385.4,386.6,385.4,386.5,385.4c0.6,0.3,1.2,0.6,1.9,0.8c3.3,1.3,6.7,1.8,9.5,2.1
			c10.5,0,17.2-5,21.3-13.6c0.7-1.3,2-3.1,2.1-4.6c0-0.1,0-0.1,0-0.1c-0.1-0.9-0.7-1.8-2.4-2.4c-2.6-0.9-6.1-1.1-8.3,0.2
			c0,0-0.1,0-0.1,0.1c-0.1,0.1-0.2,0.1-0.3,0.2c-0.5,0.4-0.9,0.9-1.1,1.5c-0.1,0.2-0.2,0.5-0.3,0.8c-1.4,5.3-4.2,4.1-7.3,3.6
			c-5.9-0.9-10.7,0.8-14.6,5.4c-0.2,0.2-0.3,0.3-0.4,0.5C384.8,382.1,384.4,383.9,386.5,385.4z"/>
		<path class="st3" d="M392,269.5c-4-1.4-8.2-2.2-12.4-2.3c-1.6,0-3.2,0-4.9,0.1c-15.7,1-31.4,9.5-39.7,20.5
			c-6.5,8.5-9.4,18-5.6,28.5c0.4,1.1,0.9,2.1,1.4,3.2c4.2,8.5,10.3,15,17.8,19.6c0,0,0,0,0,0c0.6,0.4,1.3,0.8,2,1.2
			c2.4,1.3,4.8,2.4,7.5,3.4c12.6,4.8,25.6,4.9,36.7-3.9c12.3-9.8,19-22.9,19-40.3c0.4-4-0.2-7.7-1.4-11
			C408.8,278.9,400.1,272.3,392,269.5z"/>
		<path class="st2" d="M372,376.2c2.6,0.1,3-3.6,3.5-6c0.2-0.9,0.1-1.9,0.2-2.9c-0.4-1.6,0.8-3.8-1-4.8c-1.6-0.8-2.5,1.4-3.8,2
			c-1.4,0.7-2.7,1.7-4,2.5c-1.3,0.8-2.5,2-1.6,3.3C366.9,372.9,369,376.1,372,376.2z"/>
		<path class="st1" d="M359.6,110c1.6,1.1,2.5-0.1,3.1-1.4c4.4-10.7,11.7-20.5,9.7-33c0-0.8,0-1.6,0-2.4c0.3-9.9-2.4-15-8.5-16.3
			c-6.2-1.4-11.3,2.4-14.2,11.7c-1.6,5.2-2.9,6-7.2,2.2c-5.2-4.7-14.7-4.7-18.3-0.8c-3.5,3.8-2.4,12.7,2.1,17.8
			C335.4,98.2,348.6,102.4,359.6,110z"/>
		<g>
			<path class="st4" d="M492.3,314.5c-1-0.1-2.1-0.4-3.2-0.5c-0.1,0-0.1,0-0.2,0c-0.2,0-0.5,0-0.7,0c-1.6,0.1-2.9,0.9-3.6,3.8
				c-2.8,12.6-11.7,19.7-23.2,24.2c-6.7,2.7-13.7,2.2-20.5,2c-0.9,0-1.8,0-2.7,0c-0.1,0-0.1,0-0.2,0c-0.2,0-0.4,0-0.6,0
				c0,0-0.1,0-0.2,0c-3.2,0.2-4.4,1.5-4.8,5.2c-1.5,10.9-4.4,21.3-10.7,30.6c-5.7,8.3-13.8,12.9-22.8,13.5c-1,0.1-1.9,0.1-2.9,0
				c-2.8-0.1-5.7-0.6-8.7-1.5c-9.4-2.8-17.2-8.2-24.2-14.8c-1.8-1.6-3.2-2.5-4.8-2.3c-0.1,0-0.2,0-0.4,0.1c-0.9,0.3-1.9,1-3,2.1
				c-3.2,3.4-6.6,6.7-10.3,9.5c-6.3,4.7-13,7.7-19.9,8.3c-1.8,0.2-3.6,0.2-5.5,0c-1.2-0.1-2.4-0.3-3.7-0.5c-3.2-0.5-6.4-1.6-9.5-3.2
				c-0.2-0.1-0.4-0.2-0.6-0.3c-0.7-0.2-1.2-0.4-1.8-0.4c-0.2,0-0.5,0-0.7,0c-1.6,0.1-2.8,1.1-4.2,3.2c0.1-0.2,0.1-0.3,0.2-0.4
				c-0.1,0.1-0.1,0.1-0.1,0.2c-0.1,0.2-0.2,0.4-0.2,0.6c-0.2,0.3-0.4,0.6-0.6,0.9c-0.1,0.1-0.2,0.2-0.3,0.3c0,0,0,0,0,0
				c0.3-0.1,0.5-0.3,0.7-0.6c-3.3,5.7-3.6,9.5-0.2,12.5c0.1,0.1,0.2,0.2,0.3,0.2c0.9,0.7,2,1.3,3.3,1.9c16,7.3,32.6,11.8,50.4,11.2
				c25.1-0.8,49.6-5,72.5-15.7c29.5-13.8,52.8-34.4,68.1-63.4c2.9-5.5,5.5-11.2,6.5-17.5C500.3,319.7,496.9,315.1,492.3,314.5z
				 M427.6,385.7c-2.4,9.9-8.6,16-18.4,19c-6.8,2.2-13.1,1.7-18.8-3.2c-0.5-0.5-1-0.9-1.6-1.5c0,0.1-0.1,0-0.1,0h0.1
				c0.5,0.2,1,0.3,1.5,0.4c16.1,4.1,27.5-1.7,35.9-14.6c0.7-1,1.3-2.1,2-3.3C428,383.6,427.8,384.7,427.6,385.7z"/>
			<path class="st4" d="M406.1,251.5c0.9,4,1.9,8.1,2.9,12.1c0.1,0.4,0.2,0.8,0.3,1.2c2,7.4,4.2,14.8,6.9,22c1.5,3.8,3,7.6,4.8,11.3
				c4.3,9.1,11.1,14.6,21.3,16.3c13.7,2.2,26.2-1.1,37.3-8.4c6.8-4.5,11.9-11.2,13.3-19.9c0.1-0.5,0.2-1,0.2-1.5c0-0.1,0-0.1,0-0.2
				c1.2-8.2,1.2-16.6-0.8-24.4c-3.8-15-9.9-28.1-18.6-39c-9.8-12.3-23-21.7-40.2-27.5c-1.1-0.4-2.3-0.7-3.4-1c0,0-0.1,0-0.1,0
				c-6.1-1.2-11.1-0.5-15.2,1.9c-0.1,0-0.1,0.1-0.2,0.1c-0.3,0.2-0.7,0.4-1,0.7c-0.3,0.2-0.6,0.5-1,0.7c0,0,0,0,0,0
				c-1.9,1.6-3.6,3.6-5,6.1c-0.5,0.8-0.9,1.6-1.3,2.4c-0.1,0.2-0.2,0.4-0.3,0.6c-0.8,1.6-1.4,3.4-2,5.3c-0.4,1.4-0.7,3-1.4,4.4
				c-0.1,0.4-0.2,0.7-0.2,1.1c0,0.2-0.1,0.5-0.1,0.7c-0.3,1.8-0.4,3.5-0.4,5.1C403.1,233.1,403.9,242.4,406.1,251.5z M416.9,240.8
				c2.6-4.8,9.2-7.2,14.5-5.5c4.9,1.6,8.7,4.9,12.5,8.2c0.9,0.8,1.7,1.6,2.5,2.4c2.1,2,3.4,1.6,5-0.9c2.4-3.7,5.1-7.2,8.1-10.5
				c4.4-4.8,13.9-4.9,18.7,0.9c3.7,4.5,5.5,9.3,5.5,18c0.7,10.6-4.3,20.3-10.9,29.4c-3.9,5.5-7.8,11-11.8,16.5c-2.5,3.5-3.5,3.5-7,1
				c-6.7-5-13.7-9.6-20.1-14.8c-7.5-6-13.8-13.3-17.5-22.2C413.4,256,412.9,248.3,416.9,240.8z"/>
			<path class="st4" d="M462.8,489.2c-2.8-0.3-5.5-2.3-8.4-2.4c-1.4,0-2.9,0.5-4.5,1.9c-1.3,1-2.7,1.8-4.1,2.5
				c0.1-0.1,0.2-0.1,0.3-0.2c-0.2,0.1-0.3,0.1-0.5,0.2c-0.8,0.5-1.7,0.9-2.7,1c-0.6,0.1-1.3,0.2-2,0.1c-0.7,0-1.5,0-2.2-0.2
				c-0.5-0.1-1.1-0.2-1.6-0.2c-0.6,0-1.2,0.2-1.8,0.6c-1.6,1.2-3.4,2.2-5.2,3.1c-3.4,1.8-7,3.2-10.3,5.3c-1.3,0.8-2.6,1.8-3.8,2.9
				c-1.2,1.1-2.3,2.4-3.2,3.9c-0.4,0.6-0.8,1.1-1.3,1.6c-1.3,1.3-2.9,2.4-4.6,3.3c-1.2,0.6-2.4,1.2-3.6,1.7
				c-11.2,4.7-22.2,6.9-33,6.9c-0.1,0-0.2,0-0.3,0c-0.1,0-0.1,0-0.2,0c-0.1,0-0.2,0-0.3,0c-2.1,0-4.3-0.1-6.4-0.3
				c-1.3-0.1-2.6-0.2-3.9-0.4c1,0.1,2.1,0.3,3.1,0.4c-1.8-0.2-3.7-0.4-5.5-0.7c-0.7-0.1-1.4-0.2-2.1-0.3c-0.2,0-0.4-0.1-0.6-0.1
				c-7.8-1.4-15.3-3.8-22.6-7.4c-0.7-0.3-1.4-0.7-2-1c-0.1,0-0.1-0.1-0.2-0.1c-0.6-0.3-1.2-0.7-1.9-1c-0.1,0-0.2-0.1-0.3-0.1
				c-1-0.3-1.8-0.1-2.5,1.6c-4.2,11.5-6.2,30.8,4.2,42.9c9.6,11.1,21.4,17.2,34.5,20.3c1.2,0.3,2.4,0.5,3.6,0.8
				c4.8,0.9,9.7,1.4,14.7,1.8c11.5,0.4,22.1-2.8,32.3-7.6c31.2-14.7,47.3-39.9,50.8-73.7C465,493.8,466.4,489.6,462.8,489.2z"/>
			<path class="st4" d="M420.8,417.4c0.1,2.6,2.9,0.9,4.4,1.1c6,0.8,9.9,4.2,11.1,9.7c1,4.3,3.3,4.6,7.3,4.5
				c-7.2-8.4-7.9-9.2-9.2-19.2c0-0.1,0-0.2,0-0.3c-0.1-0.8-0.2-1.6-0.4-2.6c0-0.2,0-0.3-0.1-0.5c-0.4-3-2-4.2-4.8-3.3
				c-1,0.3-2,0.7-3,1.2s-1.9,0.9-2.9,1.4c-3.7,1.6-2.2,5.1-2.4,7.7C420.8,417.2,420.8,417.3,420.8,417.4z"/>
			<path class="st4" d="M404.3,422.9c2.5-1.9,4.5-4,4.9-7.7c-6.8,1.9-13.3,3.9-19.8,5.3c-3.2,0.7-6.4,1.2-9.6,1.8
				c-3.7,0.6-7.4,1.2-11.1,1.9c-1.5,0.3-2,0.9-2.1,1.7c0,0.8,0.6,1.8,1.2,2.6c2,2.9,3.7,6.1,3.8,9.6c0,0.5,0,1,0,1.5
				c0,0.3,0,0.7-0.1,1c-0.3,1.8,0,3,0.6,3.8c0,0,0,0.1,0.1,0.1c0.8,1,2.2,1.3,4.1,1.6c4.7,0.5,9.3,1.5,13.6,3.4
				c1.8,0.8,3.8,3.3,5.6,0.9c1.8-2.5,4.7-4.6,4.1-8.4c0,0,0,0,0-0.1c-0.1-0.4-0.2-0.8-0.4-1.2c-0.8-2.1-1.2-3.9-1.4-5.6
				c-0.2-1.3-0.1-2.5,0.1-3.7C398.5,428.5,400.5,426,404.3,422.9z"/>
			<path class="st4" d="M330.9,326.4c-1-3.4-2.2-6.7-3.4-9.9c-5.3-14.1-12.2-27.4-19.7-40.5c-4.3-7.7-9.2-14.8-15.9-20.2
				c-1.1-0.9-2.2-1.7-3.3-2.4c-1.5-1-3.2-1.9-4.9-2.7c-0.1,0-0.1-0.1-0.2-0.1c-9.6-4.4-18.8-2.6-25,5.8
				c-9.5,12.8-14.4,27.3-15.6,38.5c-0.1,0.7-0.1,1.3-0.2,2c0,0.1,0,0.2,0,0.2c0.2,29.1,6,50.7,23.4,68.1c2.6,2.6,5.2,5.1,8.7,6.8
				c2,1,4,1.7,6,2.3c0.2,0,0.3,0.1,0.5,0.1c10.9,2.8,21.5,0.2,31.1-5.5C330.7,357.8,337.6,347.9,330.9,326.4z M307.5,356.8
				c-9.2-2.1-18.7-3.1-27.8-5.5c-11.3-2.9-21.4-8.3-27.1-19.4c-4.1-7.9-2.7-18.1,4.5-21.5c1-0.5,2.2-1.1,3.2-1
				c5.7,0.3,11.6-1.5,17.2,1.6c2.2,1.2,3.1-0.4,3.4-2.5c0.4-3.5,0.8-6.9,1.1-10.4c0.6-5.3,3.1-9.3,7.5-12.5
				c3.8-2.7,7.6-2.6,11.5-0.8c10.6,4.8,14.2,14.3,16,24.8c0.6,2.7,0.2,5.5,0.2,8.2c0.4,7.8-0.6,15.4-3,22.9c-1.2,4-1.2,8.4-1.7,12.6
				C312.2,356.5,311.1,357.6,307.5,356.8z"/>
		</g>
		<path class="st1" d="M260.3,309.4c-1-0.1-2.2,0.5-3.2,1c-7.2,3.4-8.6,13.6-4.5,21.5c5.7,11.1,15.8,16.5,27.1,19.4
			c9.1,2.4,18.6,3.4,27.8,5.5c3.6,0.8,4.7-0.3,5-3.5c0.5-4.2,0.5-8.6,1.7-12.6c2.4-7.5,3.4-15.1,3-22.9c0-2.7,0.4-5.5-0.2-8.2
			c-1.8-10.5-5.4-20-16-24.8c-3.9-1.8-7.7-1.9-11.5,0.8c-4.4,3.2-6.9,7.2-7.5,12.5c-0.3,3.5-0.7,6.9-1.1,10.4
			c-0.3,2.1-1.2,3.7-3.4,2.5C271.9,307.9,266,309.7,260.3,309.4z"/>
		<g>
			<path class="st5" d="M406.5,81.9c5.8,7.7,11,15.8,15.9,24.1c2.3,3.7,4.5,7.5,6.7,11.3c5.1,8.6,9.2,17.5,14.1,26.5
				c0,0,0-0.1,0-0.1c0.3-1.1,0.5-2.1,0.7-3.2c0.3-1.5-0.2-3.9,1.6-4.2c0.1,0,0.3,0,0.4,0c2.5,0.1,2.2,2.8,2.4,4.6c0,0.6,0,1.2,0,1.8
				c-0.8,16.1,1.6,31.9,4.2,47.7c0.8,5.2,3,9.2,7.6,12.4c0.9,0.6,1.7,1.2,2.5,1.8c14.7,10.9,25.6,25.2,33.5,41.9
				c5.1,10.9,8.7,22.3,11.3,35.3c0,0,0-0.1,0.1-0.1c5.5-7,9.4-14.2,12.3-21.7c1.8-4.8,3.1-9.7,4.1-14.8c4.8-25.3,1.2-49.9-8-73.9
				c-13.4-34.9-34.7-64-63.9-87.1c-10.2-8-21.5-14.5-34.8-15.3c-1.9-0.1-3.9-0.1-5.9,0c-0.5,0-1.1,0-1.7,0c-2.8-0.1-5.9-0.5-7.2,2.6
				c-1.6,3.4,1.3,6.3,3.1,9C405.8,81,406.2,81.4,406.5,81.9z"/>
			<path class="st5" d="M528,428.1c-0.5-1.7-1.2-3.3-2-4.9c-0.3-0.7-0.7-1.3-1.1-2c-0.2-0.4-0.4-0.7-0.7-1.1
				c-3.8-5.8-9.5-11.1-17.8-15.4c-10.8-5.6-21.9-9.8-33.6-12.5c-2.7-0.6-5.5-1.2-8.2-1.6c-6.3-1-9.9,2-14.1,5
				c-4.3,3-9.2,5.1-13.1,8.7c-0.1,0.1-0.2,0.4-0.2,0.5c0.1,2.7,0.2,5.5,0.5,8.2c0.4,3.3,1.1,6.4,2.8,9.3c0.1,0.2,0.2,0.4,0.4,0.6
				c0.5,0.7,1,1.4,1.6,2.1c1.3,1.4,2.3,2.3,4.1,0.1c10.1-12.9,24.4-16.5,39.9-17c3,0,5.9-0.1,8.7,1.1c0.9,0.4,2,0.6,2.3,1.5
				c0.1,0.2,0.2,0.5,0.1,0.9c-0.2,1.4-1.6,1.6-2.7,1.7c-2.7,0.1-5.5,0-8.2,0.3c-12.5,1.5-24.9,3.5-34,13.4c-3.5,3.7-4.6,5.4-3.5,7.8
				c0,0.1,0.1,0.2,0.2,0.3c0.7,1.1,1.8,2.4,3.4,4.1c0.9,0.9,1.7,1.9,2.4,2.8c0.1,0.2,0.2,0.3,0.4,0.5c2,2.6,3.3,5.5,3.4,9.1
				c0,1.3-0.2,3-1.9,3.1c-0.8,0-1.2-0.3-1.4-0.8c0-0.1-0.1-0.1-0.1-0.2c-0.2-0.5-0.3-1.1-0.5-1.7c-0.2-0.9-0.6-1.9-1-2.8
				c-0.1-0.1-0.1-0.2-0.2-0.4c-0.9-1.7-2.2-3.3-3.6-4.5c-3-2.5-5.4-9.2-11.2-3.4c-0.8,0.8-2.1-0.4-3.2-1c-1.6-0.9-2.9-2.7-5.6-2.1
				c0.3,2.5,0.6,5.2-0.7,8c4.5-1.6,6.5-1.8,7.5-0.1c0,0,0,0.1,0.1,0.1c0.3,0.5,0.6,1.3,0.8,2.2c0.1,0.6,0.3,1.2,0.5,1.6
				c0,0.1,0.1,0.2,0.1,0.3c1,1.7,2.5,2.5,4.4,3.4c3.3,1.4,5.7,3.5,7.2,6.3c0.1,0.2,0.3,0.5,0.4,0.7c0.9,1.9,1.5,4,1.6,6.4
				c0.1,1.5,0.3,3.4-1.7,3.9c-1.6,0.3-2-1.5-2.8-2.5c-0.1-0.2-0.2-0.3-0.3-0.5l0,0c-0.7-1.2-0.7-2.8-1.6-4.1c0-0.1-0.1-0.2-0.2-0.3
				c-0.3-0.3-0.6-0.7-1.1-1c-0.9,3.6-3.6,5.9-5.5,8.7c-0.9,1.3-2,2.8-1.5,4.1c0.3,0.6,1,1.1,2.3,1.6c0.8,0.3,1.3,0.7,1.5,1.2
				c0.7,0.9,0.4,2.1-0.9,3.1c-1.4,1.2-2.8,2.5-2.1,4.1c0.2,0.3,0.4,0.6,0.7,1c1.7,1.7,4.1,0.9,6-0.1c1.4-0.7,2.8-1.6,3.8-2.7
				c2.1-2.4,4-2.2,7.1-1.3c1.3,0.4,2.6,0.7,3.8,1c8.5,2,16.8,2.3,24.8,1c9.5-1.6,18.6-5.6,27.2-12.1
				C525.5,461.9,533.2,444.2,528,428.1z"/>
			<path class="st5" d="M327.1,418.5c12.2,2.6,24.4,3.2,36.4,2.4c2.1-0.2,4.3-0.3,6.4-0.6c3.2-0.4,6.3-0.8,9.5-1.3
				c0.4-0.1,0.9-0.2,1.3-0.2c0.3,0,0.5-0.1,0.8-0.1c9.4-1.8,18.9-4.3,28.2-7.3c0.1,0,0.2-0.1,0.3-0.1c0.6-0.2,1.2-0.4,1.8-0.6
				c4.5-1.5,9-3.3,13.3-5.2c21.1-9.5,39-23.9,54.4-41.8c15.7-18.7,24.5-40,22.7-64.5c-1.5-19.3-5.8-38.1-14.3-55.7
				c-3.9-8.1-8.5-15.6-13.8-22.3c-1.3-1.7-2.7-3.3-4.2-4.8c-0.8-0.9-1.6-1.7-2.4-2.6c-0.5-0.5-0.9-1-1.4-1.4
				c-1.7-1.6-3.5-3.2-5.3-4.7c-5.1-4.1-10.8-7.6-17.1-10.5c-2.2-1-4.6-2-7-2.8c-1.4-0.5-2.7-0.9-4-1.2c0.3,0.1,0.7,0.2,1,0.3
				c15.9,5.4,28.4,13.9,38.1,25c0.2,0.2,0.4,0.4,0.5,0.6c0.5,0.6,1,1.2,1.5,1.8c1.8,2.3,3.5,4.7,5.2,7.1c6,9.3,10.5,20.1,13.5,32
				c2,7.8,2,16.3,0.8,24.5c0,0.1,0,0.1,0,0.2c-0.1,0.5-0.2,1-0.2,1.5c-1.4,8.7-6.5,15.4-13.3,19.9c-11.1,7.3-23.6,10.6-37.3,8.4
				c-10.2-1.7-17-7.2-21.3-16.3c-1.8-3.7-3.3-7.5-4.8-11.3c-2.7-7.2-4.9-14.5-6.9-22c-0.1-0.4-0.2-0.8-0.3-1.2
				c-1.1-4-2.1-8.1-3-12.2c-2.1-9.1-3-18.4-4.1-29.8c0-1.5,0.1-3.2,0.5-5c0-0.2,0.1-0.5,0.1-0.7c0.1-0.4,0.2-0.7,0.2-1.1
				c0,0,0,0,0,0c0,0,0,0,0,0c-0.5,1.1-1.3,2-2.7,2.7c0-0.2,0-0.3,0-0.5c0.1-11.5,1.4-22.6,11.5-30.7c-0.4,0.1-0.7,0.1-1,0.3
				c-0.7,0.3-1.3,0.6-1.9,0.7c-1.8,0.5-4.5,5.5-5.9,3.1c-0.4-0.7-0.7-2-0.9-4.3c0-0.3-0.2-0.5-0.5-0.7c-0.6-0.4-1.5-0.6-2.4-0.7
				c-0.5-0.1-0.9-0.1-1.3-0.1c-17.6-0.8-35.1-1-52.2,4.1c-2.7,0.8-3.2,1.5-1.5,3.4c0.1,0.1,0.2,0.2,0.3,0.3c0.4,0.4,0.8,0.8,1.2,1.2
				c0.6,0.6,1.1,1.1,1.6,1.8c1,1.4,2.3,3,1.4,4.8c-1.1,2.2-3.3,1.7-5.2,1.4c-4.6-0.7-9.2-1.6-13.8-2.4c-1.1-0.2-2.2-0.4-2.9-1.1
				c0,0,0,0,0,0c-0.3-0.3-0.4-0.8-0.4-1.5c-0.1-2.3,1.6-3,3.5-3.1c2.4-0.1,4.9,0,7.7,0c-0.3-0.4-0.6-0.7-0.9-1
				c-2.3-2.2-5.5-1.6-8.2-1.7c-1.8,0-2.9-0.4-3.3-1.1c-0.5-0.8-0.2-2,0.7-3.7c1.3-2.6,3.8-4.4,5.4-7.3c0.3-0.7,0.6-1.4,0.9-2.2
				c-0.2,0.1-0.3,0.1-0.5,0.2c-4.7,2-7.1,5.8-9.9,9c-1.2,1.5-2.3,3.7-4.4,3.3c-0.7-0.1-1.1-0.4-1.4-0.7c-0.8-1,0-2.9-0.3-4.2
				c-0.3-1.3-0.3-2.7-0.6-4.2c-0.2-1.2-0.7-2.4-1.7-3.7c0,0,0,0.1,0,0.1c-0.3,3.8-0.3,6.5-0.8,9.2c-1.4,8.5-3.3,17.1-11,22.4
				c-7.3,5.1-14.5,10.4-20.8,16.9c-2,2.1-5.5,3.8-5.4,6.6c0,0.5,0.2,1,0.4,1.3l0,0c1.1,1.4,4.1,1,5.8,2c0.5,0.3,1,0.7,1.4,1.1
				c0,0,0,0,0,0c0.4,0.4,0.6,0.9,0.5,1.6c-0.4,1.9-2.1,1.5-3.4,1.4c-4-0.3-8.1-0.7-12.2-0.8c-5.1-0.2-8.5,2.2-10.3,6.8
				c-0.1,0.2-0.2,0.4-0.2,0.6c3.1-1.8,5.6-3.9,9.3-4.7c10.8-2.2,18.3,3.5,25.6,9.9c0.8,0.7,1.8,1.4,2.7,2.2c0.1,0.1,0.2,0.2,0.3,0.3
				c1,1,1.7,2.1,0.9,3.1c-1.2,1.5-2.3,0.9-3.3-0.1c-0.4-0.4-0.9-0.8-1.3-1.2c-0.1-0.1-0.2-0.2-0.2-0.2c-0.4-0.3-0.8-0.6-1.1-0.8
				c-2.7-1.2-5-3-7.7-4.2c-3.1-1.3-6.5-1.9-9.7-1.7c-4.8,0.3-9.3,2.2-12.4,5.8c-1.5,1.7-2.9,3.4-4.2,5.2c-4.9,6.7-8.4,14.1-10.6,22
				c-0.3,1.2-0.6,2.3-0.9,3.5c-0.8,3.4-1.4,6.9-1.7,10.4c-0.1,0.7-0.2,1.3-0.2,2c0,0,0,0.1,0,0.2c-0.1,2.1-0.2,4.3-0.2,6.4
				c-0.2,21.5,6.4,41.5,16.1,60.8C272.8,393.2,295.4,411.8,327.1,418.5z M298.3,407.1c-3.4-3-3.1-6.8,0.2-12.5
				c-0.2,0.2-0.4,0.4-0.7,0.6c0,0,0,0-0.1,0h0c-0.5,0.4-1.1,0.5-1.9,0.1c-1.7-0.8-1.5-2.5-1.3-4.1c0.2-1.4,0.5-2.8,0.9-4.1
				c0.1-0.3,0.2-0.7,0.3-1c0.1-0.3,0.2-0.6,0.3-0.8c0.2-0.5,0.5-1.1,0.8-1.6c0.1-0.1,0.1-0.3,0.2-0.4c0.1-0.1,0.2-0.3,0.2-0.4
				c1.2-1.8,2.8-3.4,5.2-4.5c2.2-1.1,5.1-1.3,4.3,1.9c-1.4,5.3,2.4,6.2,5.3,7.5c10.2,4.7,21.7,1.1,31.8-8.5
				c22.2-21.2,48.3-35.4,78.8-40.4c7.7-1.2,15.6-0.7,23.4-0.6c6,0.1,11.7-1.2,17.2-3c4.9-1.6,8.8-4.4,11.5-8.4
				c0.2-0.3,0.4-0.6,0.6-1c0.9-1.5,1.6-3.2,2.2-5c0.8-2.8,2.3-5.5-2-7.1c-1.6-0.6-1.6-1.6-1.1-2.6c0.3-0.5,0.8-1.1,1.3-1.5
				c3.5-3.2,11.5-3.6,15.3-0.6c1.1,0.9,2.4,1.7,1.9,3.3c0,0.1-0.1,0.2-0.1,0.3c-0.6,1.3-2,1.5-3.3,1.2c-2-0.4-3.2,0-4,1.1
				c0,0.1-0.1,0.1-0.1,0.2c-0.4,0.6-0.7,1.4-0.9,2.4c-0.7,2.8-1.8,5.5-3.2,8c-0.4,0.8-0.9,1.5-1.3,2.2c-6.1,9.3-16.6,15.5-28.5,16
				c-4.3,0.2-8.6,0.2-12.9,0c-3.4-0.2-5.2,0.6-6,3.3c0,0,0,0,0,0.1c-0.2,0.6-0.3,1.3-0.4,2.1c-1,8-2.9,15.7-6.3,22.8
				c-0.5,1.1-1.1,2.2-1.7,3.3c-0.7,1.2-1.4,2.4-2.2,3.6c-6,9.2-14.3,14-24,14.2c-14-0.4-23.9-7.1-33-14.8c-0.4-0.3-0.8-0.7-1.1-0.9
				c6.9,6.4,14.5,11.5,23.7,14.3c2.9,0.9,5.8,1.4,8.6,1.5c1,0,2,0,2.9,0c9.1-0.5,17.2-5.1,22.8-13.5c6.3-9.3,9.2-19.7,10.7-30.6
				c0.5-3.7,1.7-5,4.8-5.2c0.1,0,0.1,0,0.2,0c0.2,0,0.4,0,0.6,0c0.1,0,0.1,0,0.2,0c0.9,0,1.8,0,2.7,0c6.8,0.1,13.8,0.6,20.5-2
				c11.5-4.5,20.4-11.6,23.2-24.2c0.7-2.9,2-3.7,3.6-3.8c0.2,0,0.5,0,0.7,0c0.1,0,0.1,0,0.2,0c1,0.1,2.1,0.4,3.2,0.5
				c4.6,0.6,8,5.2,7.1,9.4c-1,6.3-3.6,12-6.5,17.5c-15.3,29-38.6,49.6-68.1,63.4c-22.9,10.7-47.4,14.9-72.5,15.7
				c-17.8,0.6-34.4-3.9-50.4-11.2c-1.3-0.6-2.4-1.3-3.3-1.9C298.5,407.3,298.4,407.2,298.3,407.1z M412.3,288.4
				c1.2,3.3,1.8,7,1.4,11c0,17.4-6.7,30.5-19,40.3c-11.1,8.8-24.1,8.7-36.7,3.9c-2.6-1-5.1-2.1-7.5-3.4c-0.7-0.4-1.3-0.8-2-1.2
				c0,0,0,0,0,0c-7.5-4.6-13.5-11.1-17.8-19.6c-0.5-1.1-1-2.1-1.4-3.2c-3.8-10.5-0.9-20,5.6-28.5c8.4-11,24-19.4,39.7-20.5
				c1.6-0.1,3.2-0.1,4.9-0.1c4.3,0.2,8.5,0.9,12.5,2.3C400.1,272.3,408.9,278.9,412.3,288.4z M336.3,276.7
				c6.6-7.5,14.8-12.4,24.1-16c-0.2,0-0.3,0-0.4,0c-0.2,0-0.4,0-0.6,0c-0.3,0-0.6,0.1-0.9,0.1c-0.2,0-0.4,0.1-0.6,0.1
				c-0.2,0-0.4,0.1-0.6,0.1c-0.3,0.1-0.7,0.2-1,0.2c-0.6,0.2-1.2,0.4-1.8,0.6c-3.2,1.2-6.2,3.1-9.2,4.8c-0.8,0.4-1.7,1.4-2.6,1.3
				c-0.4,0-0.8-0.1-1.2-0.5c-1.5-1.6,0-2.9,1-3.9c6.4-6.4,14.2-9.3,23.1-9.4c0,0,0.1,0,0.1,0c0,0,0,0,0.1,0c0.1,0,0.3,0,0.4,0
				c1.5,0,2.9,0.3,3.7,1.7c1.9,3.3,4.9,4,8.4,4.2c1.5,0.1,3.5,0,3.6,2.1c0.1,2.3-1.9,2.2-3.4,2.2c-0.1,0-0.1,0-0.2,0
				c-8.7-0.1-16.7,1.7-24,5c0,0,0,0,0,0c-0.8,0.4-1.6,0.7-2.3,1.1c-0.4,0.2-0.8,0.4-1.2,0.6c-4.3,2.3-8.3,5.2-12.2,8.6
				c-0.7,0.6-1.6,1.5-2.4,1.4c-0.4,0-0.8-0.1-1.3-0.7C333.5,278.8,335.3,277.8,336.3,276.7z M242.7,296.9c0.1-0.7,0.1-1.3,0.2-2
				c1.2-11.2,6.1-25.7,15.6-38.5c6.2-8.4,15.4-10.2,25-5.8c0.1,0,0.1,0.1,0.2,0.1c1.7,0.8,3.4,1.7,4.9,2.7c1.1,0.7,2.3,1.5,3.3,2.4
				c6.7,5.4,11.6,12.5,15.9,20.2c7.5,13.1,14.4,26.4,19.7,40.5c1.2,3.2,2.4,6.5,3.4,9.9c6.7,21.5-0.2,31.4-18.5,42.5
				c-9.6,5.8-20.2,8.3-31.1,5.5c-0.2,0-0.3-0.1-0.5-0.1c-2-0.6-4-1.4-6-2.3c-3.5-1.7-6.1-4.2-8.7-6.8c-17.4-17.4-23.2-39-23.4-68.1
				C242.7,297.1,242.7,297,242.7,296.9z"/>
			<path class="st5" d="M464.4,551.7C464.4,551.7,464.4,551.7,464.4,551.7c-0.7-0.1-1.3,0.2-2.1,0.9c-0.2,0.2-0.3,0.3-0.5,0.5
				c-0.1,0.2-0.2,0.3-0.4,0.5c-0.3,0.4-0.6,0.8-0.9,1.3c-0.8,1.3-2.2,2.3-4,1.6c-0.1-0.4-0.4-0.8-0.3-1.1c0.5-1.3,1-2.5,1.7-3.7
				c0.2-0.5,0.5-0.9,0.7-1.4c1.6-3.2,3-6.5,4.3-9.8c5.4-13.8,8.2-28.3,9.5-43.2c0-0.2,0-0.4,0.1-0.5c0.3-2.4,1-6-2.3-6.2
				c-4-0.2-8-2.3-12-3.3c-1-0.3-2-0.5-3-0.5c-3.1-0.3-6.3,0.5-9.4,3.7c-0.3,0.3-0.5,0.5-0.8,0.7c-0.8,0.5-1.7,0.8-2.7,1
				c-0.5,0.1-1,0.1-1.5,0.1c0.7,0,1.3,0,2-0.1c1-0.1,1.9-0.5,2.7-1c0.2-0.1,0.3-0.1,0.5-0.2c-0.1,0.1-0.2,0.1-0.3,0.2
				c1.4-0.7,2.8-1.5,4.1-2.5c1.6-1.3,3.1-1.8,4.5-1.9c2.9,0,5.6,2,8.4,2.4c3.6,0.4,2.2,4.6,2,6.9c-3.5,33.8-19.6,59-50.8,73.7
				c-10.2,4.8-20.8,8-32.3,7.6c-5-0.3-10-0.9-14.7-1.8c-1.2-0.2-2.4-0.5-3.6-0.8c-13.1-3.1-24.9-9.1-34.5-20.3
				c-10.4-12.1-8.4-31.4-4.2-42.9c0.6-1.7,1.5-1.9,2.5-1.6c0.1,0,0.2,0.1,0.3,0.1c0.7,0.3,1.4,0.7,2.1,1.1c0.7,0.4,1.4,0.7,2,1
				c7.3,3.6,14.8,6,22.6,7.4c0.2,0,0.4,0.1,0.6,0.1c0.7,0.1,1.4,0.2,2.1,0.3c1.8,0.3,3.6,0.5,5.5,0.7c-1-0.1-2.1-0.2-3.1-0.4
				c-0.2,0-0.4-0.1-0.6-0.1c0,0-0.1,0-0.1,0c-12.5-1.8-24.7-6.4-36.7-13.5c-4.3-2.6-6.7-6.8-8-11.8c-1.5-5.7-2.1-11.6-1.7-17.7
				c0-0.3,0-0.5,0.1-0.8c-9.4,9-19,17.5-16.9,33.6c0,0.2,0,0.4,0.1,0.6c-3.1-3-4.9-4.8-6.9-6.6c-4-3.6-8.7-5.7-13.3-6.2
				c-4.8-0.5-9.6,0.6-13.6,3.6c-0.3,0.3-0.8,0.5-1.1,0.8c-0.3,0.2-0.6,0.4-0.8,0.7c-0.3,0.4-0.4,0.9-0.2,1.6
				c0.3,1.4,1.5,1.7,2.7,1.8c0.2,0,0.4,0,0.6,0c3.2,0,6.3-0.2,9.4-0.3c1,0,1.8,0,2.7,0.2c4.1,0.7,6.9,3.5,8.4,7.6
				c1,2.5,1.4,5.3,2.1,7.9c1.2,4.5-0.2,8.2-3.9,10.8c-2.3,1.7-4.8,2.5-7.3,2.5c-0.1,0-0.2,0-0.2,0c-2.1,0-4.2-0.6-6.3-1.7
				c-1.2-0.7-2.9-1.8-2-3.7c0.5-1,1.2-1.1,2-0.9c0,0,0,0,0,0c0.7,0,1.5,0.4,2.3,0.7c1,0.3,2,0.5,3,0.7c0,0,0,0,0.1,0
				c3.4,0.3,6.3-0.6,8.3-5c-3.7,0.5-6.5,0.7-8.6,0.2c-0.1,0-0.1,0-0.2,0c-4.8-0.8-6.6-4.2-8.6-12.2c-0.4-1.5-1.9-2.5-3.7-2.8
				c-1.6-0.3-3.4-0.1-4.5,0.8c-3.7,2.9-7.4,5.8-12.4,5.1c-0.6-0.1-1.2-0.2-1.8-0.4c-0.4-0.1-0.9-0.4-1.3-0.5
				c-0.6-0.2-1.2-0.1-1.5,0.9c-0.4,1.6,0.8,2.4,2.2,2.9c0.5,0.2,1,0.2,1.5,0.3c0.9,0.1,1.9,0.1,2.9,0.3c1.1,0.2,2.3,0.6,3.4,1.6
				c-2.7,1.4-5.1,2.2-7.5,1.9c-1.6-0.1-3.1-0.7-4.7-1.8c-0.8-0.6-1.3-1.5-2.2-1.8h0c-0.5-0.2-1-0.2-1.7,0.2
				c-4.7,2-6.4,11.3-2.5,14.7c2.4,2.2,2.4,4.4,0.6,6.6c-2.6,3.3-3.3,7-1.4,9.9c0.2,0.3,0.5,0.6,0.8,0.9c0.3,0.3,0.6,0.6,1,0.9
				c3.1,2.3,4.5,5.2,5.7,8.5c4.1,11.2,11.8,19.2,22.6,24c1.8,0.8,3.7,1.4,5.6,1.7c10.1,1.9,20.1-2.4,23.4-10.9
				c1.9-4.8,1.9-4.8,6.7-5.1c0.6-0.1,1.2-0.5,1.5-0.9c2.6-4,5.7-4.6,8.8-4.1c0.1,0,0.2,0,0.4,0c2.1,0.4,4.3,1.2,6.4,2
				c0.6,0.3,1.3,0.5,1.9,0.7c13.2,4.6,26.5,8.7,40,11.5c0.6,0.1,1.3,0.3,1.9,0.4c11.9,2.4,24,3.7,36.5,3.5c0.9,0,2.1-0.1,2.9,0.1
				c0,0,0,0,0,0c0.7,0.2,1.2,0.5,1.2,1.1c0.3,3.1,2.1,5.7,3.5,8.4c0.9,1.9,1.7,3.9,1.4,6.2c-0.5,5.1-4.2,8.2-7.1,11.8
				c-3.6,4.5-3.5,9.5,0.7,13.5c1.4,1.3,2.7,2.6,4,2.5c1-0.1,1.9-0.9,2.7-3.3c1.3-3.4,4.1-6.1,8.1-5.7c0.2,0,0.5,0.1,0.7,0.1
				c0,0,0.1,0,0.1,0c3.6,0.7,5.9,3.1,7.3,6.6c0.5,1.3,0.7,2.8,1.5,3.8c1.2,1.6-2.2,5.3,1.9,5.6c0.3,0,0.7,0,1.1,0
				c1.1-0.1,2.2,0.1,3.3,0.3c0.1,0,0.1,0,0.2,0c0.5,0.1,1.1,0.2,1.6,0.2c0.9,0.1,1.9,0,2.9-0.3c1.4-0.5,2.4-1,2.6-2.6
				c0.9-6.2,4.4-10.4,11.4-12.9c-0.6-0.2-1.2-0.4-1.7-0.5c-3.9-0.8-5.6,1.9-7.7,3.6c-0.5,0.4-1,1.2-1.7,1.3c-0.2,0-0.5,0-0.7-0.1
				c-0.5-0.2-0.8-1.2-0.8-1.9c0-3,5.5-8.4,8.8-8.4c0.7,0,1.3,0.1,2,0.2c3.4,0.6,5.9,2.9,6.3,6.5c0.3,2.9,1.3,5.2,2.7,7.5
				c0.7,1.2,1.2,2.7,2.5,2.7c0,0,0.1,0,0.1,0c0.4,0,0.7-0.1,1.2-0.3c1.7-0.8,4-1,4-3.6c-0.1-4.5,1.5-8.4,4.5-11.7
				c0.6-0.7,1.4-1.7,0.4-2.5c-2.8-2-0.8-3.4,0.3-5.2c0.8-1.2,1.4-2.4,2.1-3.6c8.5-15.2,10.8-30.8,1.2-47.2
				C466.8,554.2,465.8,552,464.4,551.7z M274.7,568.7c0,0.1,0,0.3-0.1,0.4c-0.1,0.7-0.3,1.3-0.5,1.9c0,0.1-0.1,0.2-0.1,0.4
				c-0.8,2.1-2.1,3.9-4.5,5.2c-0.2,0.1-0.5,0.2-0.7,0.4c-4.7,2.3-8.9,0.6-12.5-1.9c-0.2-0.1-0.4-0.3-0.6-0.4
				c-0.4-0.3-0.8-0.6-1.2-0.9c-0.2-0.1-0.4-0.3-0.6-0.4c-0.7-0.5-1.4-1.1-2.1-1.7c-0.3-0.3-0.6-0.6-0.9-0.9
				c-0.1-0.2-0.3-0.3-0.4-0.5c-3.7-3.9-6-8.7-5.9-14.6c0-0.2,0-0.4,0-0.6c0-0.3,0-0.6,0-0.9c0-0.5,0.1-0.9,0.1-1.3
				c0.1-1.1,0.4-2.1,0.7-3c1.4-4.2,4.3-6.7,8.4-7c0.9-0.1,1.8-0.1,2.8,0.1c0.2,0,0.4,0,0.6,0.1c0.8,0.1,1.7,0.3,2.5,0.6
				c8.2,2.6,14.8,11.5,15.2,20.1c0,0.3,0,0.6,0,0.8C274.9,566,274.9,567.4,274.7,568.7z M421.3,618.5c-2,1.6-2.9-0.8-4.1-2
				c-1.8-1.8-3.6-2.9-6.2-1.3c-1.3,0.8-3.1,2.7-4.3,0.3c-0.8-1.5,0.7-2.6,1.9-3.6c0.2-0.2,0.4-0.4,0.6-0.6c1.3-1.3,3.1-1.5,4.1-1.6
				c3.4,0,5.7,0.9,7.3,3.1c0.3,0.4,0.6,0.9,0.9,1.4c0.4,0.6,0.7,1.3,0.8,1.9c0,0.2,0,0.5,0,0.7C422.3,617.3,422,618,421.3,618.5z"/>
			<path class="st5" d="M419.3,500.9c-1.3,0.8-2.6,1.8-3.8,2.9c-1.2,1.1-2.3,2.4-3.2,3.9c-0.3,0.6-0.8,1.1-1.3,1.6
				c-1.3,1.3-2.9,2.4-4.6,3.3c-1.2,0.7-2.4,1.2-3.6,1.7c-11.1,4.7-22.1,6.9-32.8,6.9c0.1,0,0.2,0,0.3,0c10.8,0,21.8-2.2,33-6.9
				c1.2-0.5,2.4-1.1,3.6-1.7c1.7-0.9,3.3-2,4.6-3.3c0.5-0.5,0.9-1,1.3-1.6c0.9-1.5,2-2.8,3.2-3.9c1.2-1.1,2.5-2.1,3.8-2.9
				c3.3-2.1,6.9-3.5,10.3-5.3c1.8-0.9,3.6-1.9,5.2-3.1c0.6-0.4,1.2-0.6,1.8-0.6c-0.8,0-1.6,0.1-2.3,0.6c-1.6,1.2-3.4,2.2-5.2,3.1
				C426.2,497.4,422.6,498.8,419.3,500.9z"/>
			<path class="st5" d="M432.7,471.3C432.7,471.2,432.7,471.2,432.7,471.3c-0.3-0.9-1.5-1.2-4.2-1c-4.3,0.4-7.9-2.2-8.1-6.7
				c-0.5-8.8-4.7-15.1-12.6-20.4c0,0.1,0,0.2,0,0.4c0,0.3-0.1,0.6-0.1,0.9c0,0,0,0.1,0,0.1c0,0.3-0.1,0.6-0.1,0.8
				c0,0.4-0.1,0.8-0.1,1.2c0,0.3-0.1,0.6-0.1,0.9c0,0.3,0,0.7,0,1.1c0,0.6,0.1,1.2,0.1,1.7c0,0.4,0,0.7,0,1
				c-0.1,1.7-0.9,2.5-4.8-0.1c-0.9-0.6-1.4-0.4-1.7,0c0,0-0.1,0.1-0.1,0.2c0,0.1,0,0.1-0.1,0.2c0,0,0,0.1,0,0.1
				c0,0.1-0.1,0.1-0.1,0.2c0,0.1,0,0.1-0.1,0.2c0,0,0,0.1,0,0.1c-0.1,0.4-0.1,0.9-0.2,1.2c-1.3,4.8-1.1,9.5-0.1,14.1
				c0.1,0.4,0.2,0.7,0.3,1.1c0.5,2.1,1.3,4.3,2,6.4c0.4,1,1.7,2.2,1.5,3.2c0,0,0,0.1,0,0.1c-0.1,0.4-0.4,0.8-1.2,1.1
				c-1.8,0.8-3.1-1-4.2-2.4c-0.6-0.8-1.2-1.7-1.7-2.5c-0.1-0.1-0.2-0.2-0.2-0.3c-2.4-4.1-3.3-8.8-3.6-13.6c0-0.1,0-0.3,0-0.4
				c0-0.5-0.1-0.9-0.1-1.3c0-0.1,0-0.3-0.1-0.4c0-0.1,0-0.3-0.1-0.4c0-0.1-0.1-0.3-0.1-0.4c0-0.1-0.1-0.3-0.1-0.4
				c0-0.1-0.1-0.3-0.1-0.4c-0.4-1-1.2-1.8-2.6-2.2c-7.6-2.5-15.4-4.7-23.4-4c-10.6,0.9-20.6,3.9-29.2,10.7c-1.2,1-2.9,2.9-4.5,0.8
				c-0.2-0.2-0.3-0.5-0.3-0.7c-0.6-1.5,0.9-2.8,1.9-3.9c6.9-7.2,15.3-11.6,25.2-12.3c4.5-0.3,6.4-2.2,6.6-5c0-0.4,0-0.8,0-1.2
				c0-0.7-0.2-1.5-0.4-2.2c-0.6-2.6-1-6-2.4-8.2c-1-1.4-2.4-2.3-4.7-2.2c-10.7,0.6-21-1.6-31.4-2.5c-3.2-0.3-4.1,0.3-3.9,2.5
				c0,0.4,0.1,0.9,0.2,1.5c1,5.6,0.8,11.2,0.4,16.9c-1,12.4-3.5,24.7-3.5,37.2c0,7.2,0.8,12.3,3.3,16.4c0.1,0.2,0.2,0.4,0.4,0.6
				c2.8,4,7.2,7,14,10c15.7,6.9,32,8.4,48.6,5.6c9.7-1.6,18.9-5.2,25.6-12.6c1-1.1,1.9-2.2,2.7-3.4c2.5-3.6,4.6-5.6,9.3-5.8
				c7.3-0.2,10.2-6.8,6.3-13.2c-1.2-1.9-0.5-3.3,0.4-4.8C432.2,473.3,432.8,472.1,432.7,471.3z"/>
			<path class="st5" d="M324.9,394.7c6.9-0.7,13.6-3.6,19.9-8.3c3.7-2.8,7.1-6.1,10.3-9.5c1.1-1.1,2-1.8,3-2.1
				c0.1,0,0.2-0.1,0.4-0.1c0.9-0.2,1.8,0,2.7,0.5c-2.8-1.9-3.9-1-8.2,3.4c-7,7.2-14.5,13.4-25.1,15.4c-4,0.7-7.8,0.8-11.5,0.2
				c1,0.2,2.1,0.3,3.1,0.4C321.3,394.9,323.1,394.9,324.9,394.7z"/>
			<path class="st5" d="M303.8,390.4c0.5,0,1,0.1,1.6,0.3c-2.4-1.2-4.3-1.7-5.6,0.7c0,0,0,0,0,0.1c-0.1,0.3-0.3,0.6-0.4,1
				c-0.1,0.2-0.1,0.4-0.2,0.6c0,0.1-0.1,0.3-0.2,0.4c1.3-2.1,2.6-3,4.2-3.2C303.3,390.3,303.5,390.3,303.8,390.4z"/>
			<path class="st5" d="M234.2,373c0.8,0.3,1.7,0.6,2.5,0.9c2.5,0.9,5.2,1.7,7.9,2.4c2.1,0.5,4.2,1,6.4,1.5c0.5,0.1,1.1,0.2,1.6,0.3
				c1.6,0.3,3.2,0.6,4.9,0.8c-0.6-1.4-0.8-2.2-1.2-2.8c-14.3-24.1-21.4-50-18.9-78.2c0.3-3-0.5-5.7-1.8-8.4
				c-0.6-1.2-1.2-2.4-1.8-3.6c-8.8-17.9-17.6-35.7-29.4-51.9c-1.3-1.8-3.4-3.6-2.6-6.4c0,0,0.1,0,0.1,0v0c2.8,0.2,3.6,3.2,6,3.2
				c0.1,0,0.2,0,0.3,0c0.6-1.2,0.5-2.2,0.2-3.2c-0.2-0.8-0.6-1.6-0.8-2.4c-3.3-10.8-5.4-21.8-8-32.8c-3.1-13.2-3.7-26.6-5.5-39.9
				c-0.4-3.5-1.7-5.2-3.8-5c-0.1,0-0.2,0-0.3,0.1c-0.8,0.2-1.8,0.6-2.8,1.3c-6.4,4.2-11.8,9.3-15.7,16.1
				c-7.4,12.7-10.5,26.6-11.9,40.7c-4.3,41.4,1.1,81.3,21.2,118.4c9.9,18.2,22.8,32.5,39.2,42.1c1.5,0.9,3,1.7,4.6,2.5
				c0.8,0.4,1.5,0.8,2.3,1.1c1.6,0.8,3.2,1.5,4.8,2.2C232.6,372.3,233.4,372.7,234.2,373z"/>
		</g>
		<g>
			<path class="st6" d="M520.7,409.4c-7.9-6.2-16.8-10.6-26-14.3c-6.7-2.7-13.8-4.5-21.2-6.2c-3.9-0.9-7.9-1.7-12.1-2.6
				c7.4-6.9,14.2-12.5,20-19.1c18.2-21.1,29.4-44.5,26-73.2c-0.4-3.3,1.3-5.4,3-7.9c5.5-7.9,9.9-16,13.1-24.5
				c5.6-14.6,7.8-30.2,6.8-46.7c-1.6-26.9-10.1-51.6-23.4-74.7c-15.2-26.4-34.4-49.2-60.6-65.4c-11.9-7.4-24.8-11.3-38.9-10
				c-8.2,0.7-11,5-8.3,12.7c1.3,3.7,3.3,7.1,5.7,10.2c5.2,6.5,10.1,13.3,14.4,20.3c2,3.2,3.8,6.5,5.5,9.9c8,15.9,18.5,31,19.6,49.6
				c0.1,1.1,0.1,2.3,0.1,3.5c0,2.2,0.2,4.4,0.5,6.7c0.8,5.4,2.3,10.8,2.8,16.4c-0.2,0-0.4,0-0.5,0c-0.2,0-0.4,0-0.6,0
				c-0.7-0.1-1.2-0.3-1.7-0.7c-0.8-0.5-1.4-1.2-2.1-1.8c-5.1-3.9-10-8.1-16-10.7c-5.7-2.4-11.3-2.8-16.8,0.4c-2.6,1.5-5,1.4-7.8,1
				c-1.1-0.2-2.2-0.3-3.3-0.4c-16.4-2.1-32.8-2.1-49.1,1.2c-4.3,0.9-8.6,2-12.9,3c-0.3,0.1-0.5,0.1-0.8,0.2c-0.7,0.2-1.3,0.3-2,0.4
				c-1.1,0.1-2.2-0.1-3-1c-1.1-1.2-0.6-2.1,0.1-2.9c0.4-0.5,1-0.9,1.3-1.5c0.2-0.3,0.3-0.5,0.5-0.8c0,0,0-0.1,0.1-0.1
				c0.8-1.3,1.7-2.7,2.6-4c0.8-1.2,1.5-2.5,0.4-3.7c-1-1.2-2.4-1-3.8-0.6c-4.1,1.2-7.3,3.6-10.1,6.7c-1,1-1.5,2.6-3.2,3
				c-0.1,0-0.3,0-0.4,0.1c-0.2,0-0.4,0.1-0.6,0.1c-0.3-0.7-0.5-1.4-0.6-2.2c-0.4-2.2-0.4-4.6-2.1-6.5c-0.9-1-1.7-1.7-2.8-1.9
				c-0.4-0.1-0.7-0.1-1.2,0c-0.1,0-0.1,0-0.1,0c-1.8,0.4-2.3,1.8-2.4,3.4c-0.2,2.1-0.2,4.3-0.4,6.4c-1.3,11.3-5.1,20.8-15.7,27.1
				c-9,5.4-16.4,13.1-22.8,21.7c-1.2,1.5-2.2,3.4-4.3,3.7c-11.3,1.2-14.9,9.4-17.1,18.8c-2.4,10.2-4.5,20.5-6.8,30.8
				c-0.1,0.3-0.1,0.6-0.2,0.9c0,0.1,0,0.2-0.1,0.3c-0.2,0.8-0.5,1.4-1.3,1.7c-1,0.3-1.8-0.5-2.2-1.5c-5.1-12.5-12.1-24.1-17.9-36.1
				c-0.9-1.8-1.7-3.6-2.5-5.5c-0.1-0.3-0.3-0.6-0.4-0.8c-2.1-5-3.9-10.2-5.5-15.4c-3.6-12.5-6-25.4-8.6-38.2
				c-2.4-11.5-2.1-23.3-4.4-34.8c-2.2-11.1-9-13.4-17.4-5.9c-7.6,6.7-13.3,14.6-17.5,23.9c-9.5,21.3-12.2,43.9-11.9,66.8
				c0.3,20.5,3.3,40.7,10.2,60.3c14.6,41.5,39.6,71.1,81,82.1c5.1,1.4,10.4,2.4,16,3.2c2.2,0.3,4.1,0.7,5.6,2.7
				c0.5,0.7,0.9,1.3,1.4,1.9c1,1.4,2,2.7,3.1,3.9c11.8,13.9,27.3,22.2,45.1,27c4,1.1,5.2,3.2,5.5,7c0,0.2,0,0.3,0,0.5
				c0.4,12.2-1.4,24.1-3,36.1c-0.4,3.3-2.3,5.1-4.7,7c-8.9,6.7-16,15.1-19.5,25.7c-1.8,5.5-3.5,4.4-7,1.9
				c-9.4-6.7-19.6-5.5-27.1,3.2c-0.4,0.5-0.8,0.8-1.2,1.2c-2,1.6-4,1.9-6.5,0.9c-4.9-2-7.8-0.1-10.6,4.2c-1.1,1.7-2.1,3.4-3.3,5
				c-1.1,1.4-2.3,2.6-3.9,3.4c-1.4,0.8-3,1.2-5.1,1.3c-6.2,0.3-7.8,5.1-4.9,11.3c1.3,2.9,3,5.8,0.6,8.7c-3.1,3.8-1.6,6.8,0.4,10.6
				c0.8,1.6,1.9,3.1,3.1,4.5c0.3,0.4,0.6,0.8,1,1.2c2.2,2.7,4.5,5.3,5.2,8.8c4.1,17,18.1,29.7,35.4,31c7.8,0.6,15.5-1.5,20-8.6
				c2.6-4.1,6.5-6.7,9.7-10.1c0.2-0.2,0.3-0.4,0.5-0.5c0.2-0.2,0.3-0.3,0.5-0.5c0.3-0.4,0.6-0.7,1-1.1c1.3-1.7,3.2-2,5.3-1.4
				c2.4,0.7,4.8,1.2,7.2,2c0.8,0.2,1.6,0.5,2.3,0.8c23.4,9.4,47.5,15.1,72.7,15.8c4.1,0.1,7.2,2,8.7,4.8s1.5,6.5-0.8,10.1
				c-0.8,1.3-1.6,2.8-2.8,3.7c-0.5,0.4-1,0.8-1.5,1.2c-2.3,2.1-3.8,4.4-4.3,6.6c-1.4,5.5,2.2,10.9,9.5,14.4c1.8,0.8,4.1,1.5,4.5,3.5
				c0.1,0.5,0.2,0.9,0.3,1.3c0.2,0.5,0.4,1,0.6,1.5c2.2,4.4,6.6,4,11.3,3.3c4.7-0.7,9.3-1.7,13.9-1.4c3.2,0.2,6.4,1.1,9.6,3.1
				c4.4,2.9,11.8,1.4,14.2-3.3c1.2-2.4,2.8-3.8,4.5-4.6c2.3-1,4.9-1.1,7.8-1c2.7,0.1,5.5,0.4,8.1,0c4.8-0.7,7-3.5,6.6-8.6
				c-0.4-5.2-3-9.8-6.2-12.9c-2.8-2.6-2.7-4.2-1.6-6c0.4-0.7,1-1.5,1.6-2.3c8.2-11.5,11.1-23.8,5.6-37.5c-2.6-6.4-5.9-12.3-9.7-18
				c-1.1-1.7-2.1-3.4-1.3-5.4c0.1-0.2,0.1-0.3,0.2-0.5c7.6-14.7,10.5-30.5,11.3-46.8c0.2-4.8,2.1-6,6.5-6.7c0.2,0,0.4-0.1,0.6-0.1
				c19.4-3.3,35.3-12.4,44.6-30.4C537.9,441.5,537.4,422.6,520.7,409.4z M464.5,390.5c2.8,0.4,5.5,1,8.2,1.6
				c11.7,2.7,22.8,6.9,33.6,12.5c8.3,4.4,14.2,9.7,17.9,15.6c0.2,0.4,0.5,0.7,0.7,1.1c0.4,0.6,0.8,1.3,1.1,2c0.8,1.6,1.5,3.3,2,4.9
				c5.1,16-2.5,33.8-16.1,44c-8.6,6.5-17.7,10.5-27.2,12.1c-8,1.3-16.3,1-24.8-1c-1.2-0.3-2.5-0.6-3.8-1c-3.1-0.9-5-1.1-7.1,1.3
				c-1,1.1-2.4,2-3.8,2.7c-1.9,1-4.3,1.8-6,0.1c-0.3-0.3-0.6-0.7-0.7-1c-0.8-1.7,0.6-3.1,2-4.3c1.2-1,1.5-2,1-2.9
				c-0.3-0.5-0.8-0.9-1.5-1.2c-1.2-0.5-2-1-2.3-1.6c-0.8-1.4,0.5-3,1.4-4.3c1.9-2.8,4.5-5.1,5.5-8.7c0.5,0.4,0.9,0.8,1.2,1.2
				c0.1,0.1,0.1,0.2,0.2,0.3c0.8,1.4,0.8,3,1.6,4.1l0,0c0.1,0.1,0.1,0.2,0.2,0.3c0.8,1,1.2,2.8,2.8,2.5c2-0.4,1.8-2.4,1.7-3.9
				c-0.2-2.3-0.7-4.3-1.5-6.2c-0.1-0.2-0.2-0.5-0.4-0.7c-1.5-2.7-3.8-4.9-7.2-6.3c-1.9-0.8-3.5-1.6-4.4-3.4c0-0.1-0.1-0.2-0.1-0.3
				c-0.3-0.5-0.5-1.1-0.6-1.8c-0.2-0.8-0.4-1.5-0.7-2c0-0.1,0-0.1-0.1-0.1c-1-1.7-3-1.5-7.5,0.1c-0.1,0-0.2,0-0.2,0.1
				c1.4-2.9,1.1-5.6,0.8-8.3c2.7-0.6,4,1.2,5.6,2.1c1,0.5,2.4,1.7,3.2,1c5.9-5.8,8.2,0.9,11.2,3.4c1.5,1.2,2.8,2.8,3.7,4.7
				c0.1,0.1,0.1,0.2,0.2,0.4c0.4,0.9,0.8,1.8,1,2.8c0.1,0.5,0.2,1.2,0.5,1.7c0,0.1,0.1,0.1,0.1,0.2c0.3,0.4,0.7,0.7,1.3,0.6
				c1.8-0.1,2-1.8,1.9-3.1c-0.1-3.4-1.5-6.3-3.3-8.9c-0.1-0.2-0.2-0.3-0.4-0.5c-0.8-1-1.6-1.9-2.4-2.8c-1.6-1.7-2.8-3-3.4-4.1
				c-0.1-0.1-0.1-0.2-0.2-0.3c-1.3-2.4-0.1-4.1,3.4-8c9.1-9.9,21.5-11.9,34-13.4c2.7-0.3,5.5-0.2,8.2-0.3c1.2-0.1,2.5-0.3,2.7-1.7
				c0.1-0.3,0-0.5,0-0.7c-0.2-0.9-1.4-1.1-2.3-1.5c-2.8-1.2-5.7-1.1-8.7-1.1c-15.5,0.5-29.8,4.1-39.9,17c-1.8,2.2-2.8,1.3-4.1-0.1
				c-0.6-0.7-1.2-1.4-1.6-2.1c-0.1-0.2-0.3-0.4-0.4-0.6c-1.8-2.9-2.5-6.2-2.9-9.5c-0.3-2.7-0.4-5.5-0.5-8.2c0-0.2,0-0.4,0.2-0.5
				c3.9-3.6,8.8-5.6,13.1-8.7C454.6,392.5,458.3,389.5,464.5,390.5z M323.6,427.7c-0.1-0.6-0.2-1.1-0.2-1.5c0-2.1,1-2.6,4.1-2.3
				c10.5,0.9,20.8,3,31.4,2.5c2.3-0.1,3.8,0.8,4.7,2.2c1.5,2.2,1.8,5.7,2.4,8.2c0.2,0.8,0.3,1.6,0.4,2.3c0,0.4,0,0.8,0,1.2
				c-0.2,2.8-2.1,4.7-6.6,5c-9.9,0.7-18.3,5.1-25.2,12.3c-1.1,1.1-2.6,2.4-1.9,3.9c0.1,0.2,0.2,0.4,0.3,0.6c1.5,2.1,3.2,0.3,4.5-0.8
				c8.6-6.8,18.6-9.8,29.2-10.7c8-0.7,15.8,1.6,23.4,4c1.5,0.5,2.2,1.3,2.6,2.3c0.1,0.1,0.1,0.2,0.1,0.4c0.1,0.1,0.1,0.2,0.1,0.4
				c0,0.1,0.1,0.3,0.1,0.4c0,0.1,0,0.2,0.1,0.4c0,0.1,0,0.3,0.1,0.4c0,0.4,0.1,0.8,0.1,1.2c0,0.2,0,0.3,0,0.5
				c0.3,4.8,1.2,9.5,3.6,13.6c0.1,0.1,0.1,0.2,0.2,0.3c0.5,0.8,1.1,1.7,1.7,2.4c1.1,1.4,2.5,3.2,4.2,2.4c0.7-0.3,1-0.7,1.2-1
				c0,0,0-0.1,0-0.1c0.3-1-1-2.2-1.5-3.2c-0.8-2.1-1.5-4.3-2-6.4c-0.1-0.4-0.2-0.7-0.3-1.1c-1.1-4.6-1.3-9.3,0.1-14.2
				c0.1-0.3,0.1-0.7,0.2-1.1c0,0,0-0.1,0-0.1c0-0.1,0-0.2,0.1-0.2c0-0.1,0-0.1,0.1-0.2c0,0,0-0.1,0-0.1c0-0.1,0-0.1,0.1-0.2
				c0-0.1,0-0.1,0.1-0.2c0.3-0.5,0.7-0.8,1.7-0.1c3.8,2.6,4.7,1.8,4.8,0.2c0-0.3,0-0.7,0-1c0-0.6-0.1-1.2-0.1-1.7c0-0.4,0-0.8,0-1.1
				c0,0,0-0.1,0-0.1c0-0.3,0-0.5,0.1-0.8c0-0.4,0.1-0.8,0.1-1.2c0-0.2,0-0.5,0.1-0.8c0,0,0-0.1,0-0.1c0-0.3,0-0.6,0.1-0.9
				c0-0.2,0-0.3,0-0.5c7.9,5.3,12.1,11.6,12.6,20.4c0.3,4.5,3.8,7.1,8.1,6.7c2.8-0.3,4,0.1,4.2,1c0,0,0,0,0,0
				c0.2,0.8-0.5,2.1-1.4,3.6c-0.9,1.5-1.6,2.9-0.4,4.8c3.9,6.4,1,13-6.3,13.2c-4.7,0.2-6.8,2.2-9.3,5.8c-0.8,1.2-1.7,2.3-2.7,3.4
				c-6.7,7.4-15.9,11-25.6,12.6c-16.6,2.8-32.9,1.3-48.6-5.6c-6.8-3-11.2-6-14-10c-0.2-0.2-0.3-0.4-0.4-0.6
				c-2.6-4.1-3.5-9.3-3.5-16.7c0.1-12.5,2.6-24.8,3.5-37.2C324.5,438.9,324.7,433.3,323.6,427.7z M409.2,415.1c0,0,0,0.1,0,0.1
				c-0.4,3.7-2.4,5.8-4.9,7.7c-3.8,3-5.8,5.6-6.5,8.6c-0.3,1.1-0.3,2.4-0.1,3.7c0.2,1.6,0.7,3.4,1.4,5.5c0.2,0.4,0.3,0.9,0.4,1.3
				c0,0,0,0,0,0.1c0.7,3.8-2.3,5.9-4.1,8.4c-1.8,2.4-3.8-0.1-5.6-0.9c-4.3-1.9-8.9-2.9-13.6-3.4c-1.8-0.2-3.2-0.6-4.1-1.6
				c0,0,0-0.1-0.1-0.1c-0.7-0.8-0.9-2.1-0.6-3.9c0-0.3,0.1-0.6,0.1-0.9c0-0.5,0-1,0-1.5c-0.2-3.5-1.8-6.6-3.8-9.6
				c-0.6-0.8-1.1-1.8-1.2-2.6c0-0.8,0.5-1.5,2.1-1.8c3.7-0.7,7.4-1.3,11.1-1.9c3.2-0.5,6.4-1.1,9.6-1.8
				C395.9,419,402.4,417,409.2,415.1z M434.4,413.2c0,0.1,0,0.2,0,0.2c1.3,10,2.1,10.8,9.3,19.3c0,0-0.1,0-0.1,0
				c-4,0.1-6.3-0.2-7.3-4.5c-1.2-5.5-5.1-8.9-11.1-9.7c-1.5-0.2-4.4,1.5-4.4-1.1c0-0.2,0-0.3,0-0.5c0.1-2.5-1.4-6,2.4-7.6
				c1-0.4,1.9-0.9,2.9-1.4c1-0.4,1.9-0.9,3-1.2c2.8-0.8,4.4,0.3,4.8,3.3c0,0.2,0.1,0.4,0.1,0.6C434.1,411.5,434.2,412.4,434.4,413.2
				z M445.9,136.3c-0.1,0-0.3,0-0.4,0c-1.8,0.3-1.3,2.7-1.6,4.2c-0.2,1.1-0.4,2.1-0.7,3.2c0,0,0,0.1,0,0.1c-4.9-9-9-17.9-14.1-26.5
				c-2.2-3.8-4.4-7.6-6.7-11.3c-4.9-8.3-10.1-16.4-15.9-24.1c-0.3-0.5-0.7-0.9-1-1.4c-1.8-2.7-4.7-5.6-3.1-9
				c1.3-3.1,4.4-2.7,7.2-2.6c0.6,0,1.1,0,1.7,0c2-0.1,4-0.2,5.9,0c13.3,0.8,24.6,7.3,34.8,15.3c29.2,23.1,50.5,52.2,63.9,87.1
				c9.2,24,12.8,48.6,8,73.9c-1,5.1-2.3,10-4.1,14.8c-2.9,7.5-6.9,14.7-12.3,21.7c0,0,0,0.1-0.1,0.1c-2.6-13-6.2-24.4-11.3-35.3
				c-7.9-16.7-18.8-31-33.5-41.9c-0.8-0.6-1.6-1.2-2.5-1.8c-4.6-3.2-6.8-7.2-7.6-12.4c-2.6-15.8-5-31.6-4.2-47.7c0-0.6,0-1.2,0-1.8
				C448.1,139.1,448.4,136.4,445.9,136.3z M313.2,176.3c1,1.3,1.5,2.5,1.7,3.7c0.3,1.5,0.3,2.9,0.6,4.2c0.4,1.3-0.5,3.1,0.3,4.2
				c0.2,0.3,0.7,0.6,1.4,0.7c2.1,0.4,3.2-1.8,4.4-3.3c2.7-3.2,5.2-7,9.9-9c0.1-0.1,0.3-0.1,0.5-0.2c-0.3,0.8-0.6,1.5-0.9,2.2
				c-1.6,2.9-4.1,4.7-5.4,7.3c-0.9,1.7-1.2,2.9-0.7,3.7c0.4,0.7,1.5,1,3.3,1.1c2.8,0.1,5.9-0.5,8.2,1.7c0.3,0.3,0.6,0.6,0.9,1
				c-2.8,0-5.3-0.1-7.7,0c-1.9,0.1-3.6,0.8-3.5,3.1c0,0.6,0.2,1.1,0.4,1.5c0,0,0,0,0,0c0.6,0.8,1.8,0.9,2.9,1.1
				c4.6,0.8,9.2,1.7,13.8,2.4c1.9,0.3,4.1,0.8,5.2-1.4c0.9-1.8-0.4-3.4-1.4-4.8c-0.5-0.7-1-1.2-1.6-1.8c-0.4-0.4-0.8-0.8-1.2-1.2
				c-0.1-0.1-0.2-0.2-0.3-0.3c-1.8-1.9-1.2-2.6,1.5-3.4c17.1-5.1,34.6-4.9,52.2-4.1c0.4,0,0.8,0,1.3,0.1c0.9,0.1,1.9,0.3,2.4,0.7
				c0.3,0.2,0.4,0.4,0.5,0.7c0.1,2.3,0.4,3.6,0.9,4.3c1.4,2.4,4.1-2.7,5.9-3.1c0.6-0.1,1.2-0.5,1.9-0.7c0.3-0.1,0.6-0.2,1-0.3
				c-10.1,8.1-11.4,19.2-11.5,30.7c0,0.2,0,0.3,0,0.5c1.3-0.7,2.2-1.7,2.7-2.7c0,0,0,0,0,0c0,0,0,0,0,0c0.7-1.4,0.9-3,1.4-4.4
				c0.6-1.9,1.3-3.7,2-5.3c0.1-0.2,0.2-0.4,0.3-0.6c1.7-3.6,3.8-6.4,6.3-8.5c0,0,0,0,0,0c0.3-0.3,0.6-0.5,1-0.7
				c0.3-0.2,0.7-0.5,1-0.7c0.1,0,0.1-0.1,0.2-0.1c4.1-2.4,9.2-3.1,15.2-1.9c0,0,0.1,0,0.1,0c0.7,0.1,1.4,0.3,2.2,0.5
				c0,0,0.1,0,0.2,0c1.3,0.3,2.6,0.7,4,1.2c2.4,0.8,4.8,1.8,7,2.8c6.3,2.9,12,6.4,17.1,10.5c1.8,1.5,3.6,3.1,5.3,4.7
				c0.5,0.5,1,0.9,1.4,1.4c0.8,0.8,1.6,1.7,2.4,2.6c1.4,1.6,2.8,3.2,4.2,4.8c5.3,6.7,9.9,14.2,13.8,22.3
				c8.5,17.6,12.8,36.4,14.3,55.7c1.8,24.5-7,45.8-22.7,64.5C464,381.6,446.1,396,425,405.5c-4.3,1.9-8.8,3.7-13.3,5.2
				c-0.6,0.2-1.2,0.4-1.8,0.6c-0.1,0-0.2,0.1-0.3,0.1c-9.3,3-18.8,5.5-28.2,7.3c-0.3,0-0.5,0.1-0.8,0.1c-0.4,0.1-0.8,0.2-1.2,0.2
				c-3.2,0.5-6.4,1-9.6,1.3c-2.1,0.2-4.3,0.4-6.4,0.6c-12,0.8-24.1,0.2-36.4-2.4c-31.7-6.7-54.3-25.3-68.7-54.1
				c-9.7-19.3-16.2-39.4-16.1-60.8c0-2.1,0.1-4.2,0.2-6.4c0-0.1,0-0.2,0-0.2c0-0.7,0.1-1.3,0.2-2c0.3-3.5,0.9-7,1.7-10.4
				c0.3-1.2,0.6-2.3,0.9-3.5c2.3-7.9,5.8-15.3,10.6-22c1.3-1.8,2.7-3.5,4.2-5.2c3.1-3.6,7.6-5.5,12.4-5.8c3.2-0.2,6.6,0.4,9.7,1.7
				c2.7,1.2,5,3,7.7,4.2c0.4,0.2,0.8,0.5,1.1,0.8c0.1,0.1,0.2,0.2,0.2,0.2c0.4,0.4,0.8,0.9,1.3,1.2c1.1,1,2.1,1.6,3.3,0.1
				c0.8-1,0.2-2.1-0.9-3.1c-0.1-0.1-0.2-0.2-0.3-0.3c-0.9-0.8-1.9-1.6-2.7-2.2c-7.3-6.4-14.8-12.1-25.6-9.9
				c-3.7,0.8-6.2,2.9-9.3,4.7c0.1-0.2,0.1-0.4,0.2-0.6c1.8-4.6,5.2-7,10.3-6.8c4.1,0.1,8.2,0.5,12.2,0.8c1.3,0.1,3,0.5,3.4-1.4
				c0.1-0.7-0.1-1.2-0.5-1.6c0,0,0,0,0,0c-0.4-0.4-0.9-0.8-1.4-1.1c-1.7-1.1-4.7-0.7-5.8-2l0,0c-0.2-0.3-0.4-0.7-0.4-1.3
				c-0.1-2.8,3.4-4.5,5.4-6.6c6.3-6.5,13.5-11.8,20.8-16.9c7.7-5.3,9.6-13.9,11-22.4c0.5-2.7,0.5-5.3,0.8-9.2
				C313.2,176.4,313.2,176.3,313.2,176.3z M252.6,378.1c-0.6-0.1-1.1-0.2-1.6-0.3c-2.2-0.4-4.3-0.9-6.5-1.5
				c-2.7-0.7-5.2-1.5-7.8-2.4c-0.8-0.3-1.7-0.6-2.5-0.9c-0.8-0.3-1.7-0.6-2.5-1c-1.7-0.7-3.3-1.4-4.8-2.2c-0.8-0.4-1.5-0.8-2.3-1.1
				c-1.6-0.8-3.1-1.6-4.6-2.5c-16.5-9.6-29.4-23.8-39.3-42.1c-20.1-37.1-25.5-77-21.2-118.4c1.4-14.1,4.5-28,11.9-40.7
				c4-6.9,9.3-12,15.7-16.1c1.1-0.7,2.1-1.2,2.9-1.3c0.1,0,0.2,0,0.3-0.1c2.1-0.2,3.4,1.5,3.8,5c1.8,13.3,2.4,26.7,5.5,39.9
				c2.6,11,4.7,22,8,32.8c0.2,0.8,0.6,1.6,0.8,2.4c0.3,1,0.4,2-0.2,3.2c-0.1,0-0.2,0-0.3,0c-2.5,0-3.3-3-6-3.2c0,0-0.1,0-0.1,0
				c-0.8,2.8,1.3,4.6,2.6,6.4c11.8,16.2,20.6,34,29.4,51.9c0.6,1.2,1.2,2.4,1.8,3.6c1.3,2.7,2.1,5.4,1.8,8.4
				c-2.5,28.2,4.6,54.1,18.9,78.2c0.4,0.6,0.6,1.4,1.2,2.8c0,0,0,0,0,0C255.9,378.7,254.2,378.4,252.6,378.1z M472.5,497.3
				c-1.3,14.9-4.1,29.4-9.5,43.2c-1.3,3.3-2.7,6.6-4.3,9.8c-0.2,0.5-0.5,0.9-0.7,1.4c-0.6,1.2-1.2,2.5-1.7,3.7
				c-0.1,0.3,0.2,0.7,0.3,1.1c1.8,0.7,3.2-0.3,4-1.6c0.3-0.5,0.6-0.9,0.9-1.3c0.1-0.2,0.2-0.3,0.4-0.5c0.2-0.2,0.3-0.3,0.5-0.5
				c0.8-0.8,1.5-1,2.1-0.9c0,0,0,0,0,0c1.4,0.3,2.4,2.5,3.6,4.6c9.6,16.4,7.3,32-1.2,47.2c-0.7,1.2-1.3,2.4-2.1,3.6
				c-1.1,1.8-3.1,3.2-0.3,5.2c1,0.8,0.2,1.8-0.4,2.5c-3,3.3-4.6,7.2-4.5,11.7c0,2.6-2.3,2.8-4,3.6c-0.4,0.2-0.8,0.3-1.2,0.3
				c0,0-0.1,0-0.1,0c-1.3,0-1.8-1.5-2.5-2.7c-1.4-2.3-2.4-4.6-2.7-7.5c-0.4-3.6-2.9-5.9-6.3-6.5c-0.6-0.1-1.3-0.2-2-0.2
				c-3.3,0-8.8,5.4-8.8,8.4c0,0.7,0.3,1.7,0.8,1.9c0.2,0.1,0.5,0.2,0.7,0.1c0.7-0.1,1.2-0.9,1.7-1.3c2.1-1.7,3.8-4.4,7.7-3.6
				c0.5,0.1,1.1,0.3,1.7,0.5c-7,2.5-10.5,6.7-11.4,12.9c-0.2,1.6-1.2,2.1-2.6,2.6c-1,0.3-2,0.4-2.9,0.3c-0.5,0-1.1-0.1-1.6-0.2
				c-0.1,0-0.1,0-0.2,0c-1.1-0.2-2.2-0.4-3.3-0.3c-0.4,0-0.8,0-1.1,0c-4.1-0.3-0.7-4-1.9-5.6c-0.8-1-1-2.5-1.5-3.8
				c-1.4-3.5-3.8-5.9-7.3-6.6c0,0-0.1,0-0.1,0c-0.2,0-0.5-0.1-0.7-0.1c-4-0.4-6.8,2.3-8.1,5.7c-0.8,2.3-1.8,3.2-2.7,3.3
				c-1.3,0.1-2.6-1.2-4-2.5c-4.2-4-4.3-9-0.7-13.5c2.9-3.6,6.6-6.7,7.1-11.8c0.3-2.3-0.5-4.3-1.4-6.2c-1.4-2.7-3.2-5.3-3.5-8.4
				c0-0.6-0.5-0.9-1.2-1.1c0,0,0,0,0,0c-0.9-0.2-2-0.1-2.9-0.1c-12.5,0.2-24.6-1.1-36.5-3.5c-0.6-0.1-1.3-0.2-1.9-0.4
				c-13.5-2.8-26.8-6.9-40-11.5c-0.6-0.2-1.3-0.4-1.9-0.7c-2.1-0.7-4.3-1.6-6.4-2c-0.1,0-0.2,0-0.4,0c-3.2-0.5-6.2,0.2-8.8,4.1
				c-0.3,0.4-0.9,0.8-1.5,0.9c-4.8,0.3-4.8,0.3-6.7,5.1c-3.3,8.5-13.3,12.8-23.4,10.9c-1.9-0.3-3.8-0.9-5.6-1.7
				c-10.8-4.8-18.5-12.8-22.6-24c-1.2-3.3-2.6-6.2-5.7-8.5c-0.3-0.2-0.7-0.6-1-0.9c-0.3-0.3-0.6-0.6-0.8-0.9
				c-1.9-2.9-1.2-6.6,1.4-9.9c1.8-2.2,1.8-4.4-0.6-6.6c-3.9-3.4-2.2-12.7,2.5-14.7c0.7-0.3,1.3-0.3,1.7-0.2h0
				c0.9,0.3,1.4,1.3,2.2,1.8c1.6,1.1,3.1,1.7,4.7,1.8c2.4,0.2,4.8-0.5,7.5-1.9c-1.1-1-2.2-1.4-3.4-1.6c-1-0.2-2-0.2-2.9-0.3
				c-0.5,0-1-0.1-1.5-0.3c-1.4-0.5-2.6-1.3-2.2-2.9c0.3-1.1,0.8-1.1,1.5-0.9c0.4,0.1,0.9,0.4,1.3,0.5c0.6,0.2,1.2,0.3,1.8,0.4
				c5,0.7,8.7-2.2,12.4-5.1c1.1-0.9,2.9-1.1,4.5-0.8c1.8,0.4,3.3,1.4,3.7,2.8c2,8,3.9,11.5,8.6,12.2c0.1,0,0.1,0,0.2,0
				c2.2,0.3,5,0.1,8.7-0.5c0,0.1-0.1,0.2-0.1,0.2c-1.9,4.3-4.9,5.3-8.3,5c0,0,0,0-0.1,0c-1.2-0.1-2.4-0.4-3.7-0.8
				c-0.5-0.2-1.1-0.4-1.6-0.6c0,0,0,0,0,0c-0.8-0.2-1.5-0.2-2,0.9c-0.9,1.9,0.8,3,2,3.7c2.1,1.1,4.2,1.7,6.3,1.7c0.1,0,0.1,0,0.2,0
				c2.5,0,5-0.8,7.3-2.5c3.7-2.6,5.1-6.3,3.9-10.8c-0.7-2.6-1.1-5.4-2.1-7.9c-1.6-4.2-4.3-6.9-8.4-7.6c-0.8-0.2-1.7-0.2-2.7-0.2
				c-3.1,0.1-6.2,0.3-9.4,0.3c-0.2,0-0.4,0-0.6,0c-1.2-0.1-2.3-0.3-2.7-1.8c-0.2-0.7,0-1.2,0.2-1.6c0.2-0.3,0.5-0.5,0.8-0.7
				c0.3-0.3,0.8-0.5,1.1-0.8c4-3,8.8-4.1,13.6-3.6c4.6,0.5,9.3,2.6,13.3,6.2c2,1.8,3.8,3.6,6.9,6.6c0-0.2-0.1-0.4-0.1-0.6
				c-2.1-16.1,7.5-24.6,16.9-33.6c0,0.3,0,0.6-0.1,0.8c-0.4,6.1,0.1,11.9,1.7,17.7c1.3,5,3.7,9.2,8,11.8c12,7,24.2,11.7,36.7,13.5
				c0,0,0.1,0,0.1,0c0.2,0,0.4,0,0.6,0.1c1.3,0.2,2.6,0.3,3.9,0.4c2.1,0.2,4.3,0.3,6.4,0.3c0.1,0,0.2,0,0.3,0c0.1,0,0.1,0,0.2,0
				c10.7,0,21.7-2.2,32.8-6.9c1.2-0.5,2.4-1,3.6-1.7c1.7-0.9,3.3-2,4.6-3.3c0.5-0.5,1-1,1.3-1.6c0.9-1.5,2-2.8,3.2-3.9
				c1.2-1.1,2.5-2.1,3.8-2.9c3.3-2.1,6.9-3.5,10.3-5.3c1.8-0.9,3.6-1.9,5.2-3.1c0.7-0.5,1.5-0.7,2.3-0.6c0.5,0,1.1,0.1,1.6,0.2
				c0.8,0.2,1.5,0.2,2.2,0.2c0.5,0,1,0,1.5-0.1c1-0.2,1.9-0.5,2.7-1c0.3-0.2,0.5-0.4,0.8-0.7c3.2-3.2,6.3-4,9.4-3.7
				c1,0.1,2,0.3,3,0.5c4,1,8,3.1,12,3.3c3.2,0.2,2.5,3.7,2.3,6.2C472.5,496.9,472.5,497.1,472.5,497.3z"/>
			<path class="st6" d="M306.7,380.2c0.8-3.2-2.1-3-4.3-1.9c-2.3,1.1-4,2.7-5.2,4.5c-0.1,0.1-0.2,0.3-0.2,0.4
				c-0.1,0.1-0.2,0.3-0.2,0.4c-0.3,0.5-0.5,1.1-0.8,1.6c-0.1,0.3-0.2,0.6-0.3,0.8c-0.1,0.3-0.2,0.7-0.3,1c-0.4,1.3-0.7,2.7-0.9,4.1
				c-0.2,1.6-0.4,3.3,1.3,4.1c0.9,0.4,1.5,0.2,1.9-0.1h0c0,0,0,0,0.1,0c0.1-0.1,0.2-0.2,0.3-0.3c0.2-0.3,0.4-0.6,0.6-0.9
				c0.1-0.2,0.2-0.4,0.2-0.6c0.1-0.1,0.1-0.3,0.1-0.4c0.2-0.6,0.4-1,0.6-1.4c0,0,0,0,0-0.1c1.4-2.4,3.2-1.9,5.6-0.7
				c0.1,0,0.1,0.1,0.2,0.1c0.2,0.1,0.4,0.2,0.6,0.3c3.1,1.6,6.3,2.6,9.5,3.2c0.1,0,0.2,0,0.2,0c0.1,0,0.2,0,0.3,0.1
				c3.7,0.5,7.5,0.4,11.5-0.2c10.6-2,18.1-8.2,25.1-15.4c4.3-4.4,5.4-5.4,8.2-3.4c0.7,0.5,1.6,1.2,2.7,2.2c0,0,0,0,0,0
				c0.4,0.3,0.7,0.6,1.1,0.9c9.1,7.7,19,14.4,33,14.8c9.7-0.2,18-5,24-14.2c0.8-1.2,1.5-2.4,2.2-3.6c0.6-1.1,1.2-2.2,1.7-3.3
				c3.4-7.1,5.2-14.8,6.2-22.6c0.1-0.9,0.3-1.6,0.5-2.3c0,0,0,0,0-0.1c0.9-2.8,2.6-3.6,6-3.3c4.3,0.2,8.6,0.2,12.9,0
				c11.8-0.5,22.4-6.7,28.5-16c0.5-0.7,0.9-1.5,1.3-2.2c1.3-2.4,2.4-5,3.1-7.8c0.3-1.1,0.6-1.9,1-2.6c0-0.1,0.1-0.1,0.1-0.2
				c0.8-1.1,2-1.4,4-1.1c1.3,0.3,2.7,0.1,3.3-1.2c0.1-0.1,0.1-0.2,0.1-0.3c0.5-1.6-0.8-2.4-1.9-3.3c-3.8-3-11.8-2.6-15.3,0.6
				c-0.5,0.5-1,1-1.3,1.5c-0.6,1-0.5,2,1.1,2.6c4.3,1.6,2.8,4.3,2,7.1c-0.5,1.8-1.3,3.5-2.2,5c-0.2,0.3-0.4,0.7-0.6,1
				c-2.7,4-6.6,6.8-11.5,8.4c-5.5,1.8-11.2,3.1-17.2,3c-7.8-0.1-15.7-0.6-23.4,0.6c-30.5,5-56.6,19.2-78.8,40.4
				c-10.1,9.6-21.6,13.2-31.8,8.5C309.1,386.4,305.3,385.5,306.7,380.2z M423.6,343.9c3.7-0.7,4.4,1.3,3.9,3.7
				c-0.7,3.2-0.2,7.3-4.4,8.6c-1.7,0.5-8-6.6-7.6-8.8C416.6,342.4,421.3,345.2,423.6,343.9z M386.5,379.9c0.1-0.2,0.3-0.3,0.4-0.5
				c3.9-4.6,8.7-6.3,14.6-5.4c3.1,0.5,5.9,1.7,7.3-3.6c0.1-0.3,0.2-0.5,0.3-0.8c0.3-0.6,0.7-1.1,1.1-1.5c0.1-0.1,0.2-0.2,0.3-0.2
				c0,0,0.1-0.1,0.1-0.1c2.2-1.4,5.7-1.3,8.3-0.3c1.7,0.6,2.3,1.5,2.4,2.5c0,0,0,0.1,0,0.1c0,1.5-1.4,3.3-2.1,4.6
				c-4.1,8.6-10.8,13.6-21.3,13.6c-2.8-0.3-6.2-0.8-9.5-2.1c-0.7-0.2-1.3-0.5-1.8-0.8c0,0-0.1,0-0.1-0.1
				C384.3,384,384.7,382.2,386.5,379.9z M366.4,367c1.3-0.8,2.6-1.8,3.9-2.4c1.7-0.7,2.8-3.6,4.8-2.1c1,0.8,0.6,3.2,0.8,4
				c-0.1,1.7,0,2.5-0.2,3.2c-0.4,2.7-0.8,6.5-3.4,6.7c-3.3,0.3-5.3-3.4-7.2-6C364.2,369.3,365.1,367.9,366.4,367z"/>
			<path class="st6" d="M390.3,400.4c-0.5-0.1-1-0.3-1.5-0.4c0.5,0.5,1,1,1.6,1.5c5.8,4.9,12.1,5.3,18.8,3.2c9.8-3,16-9.2,18.4-19
				c0.2-1,0.5-2.1,0.6-3.2c-0.6,1.2-1.3,2.2-2,3.3C417.8,398.8,406.4,404.6,390.3,400.4z"/>
			<path class="st6" d="M421.5,614.2c-0.3-0.5-0.6-0.9-0.9-1.4c-1.6-2.2-3.9-3.1-7.3-3.1c-1,0.1-2.8,0.4-4.1,1.6
				c-0.2,0.2-0.4,0.4-0.6,0.6c-1.2,1-2.5,2.1-1.9,3.6c1.2,2.4,3,0.5,4.3-0.3c2.6-1.6,4.4-0.5,6.2,1.3c1.2,1.2,2.1,3.6,4.1,2
				c0.7-0.6,1-1.2,1-1.8c0-0.2,0-0.5,0-0.7C422.2,615.4,421.9,614.8,421.5,614.2z"/>
			<path class="st6" d="M388.8,400L388.8,400C388.7,400,388.8,400.1,388.8,400z"/>
			<path class="st6" d="M336.1,281.2c0.8,0.1,1.7-0.8,2.4-1.4c3.8-3.4,7.9-6.3,12.2-8.6c0.4-0.2,0.8-0.4,1.2-0.6
				c0.8-0.4,1.6-0.8,2.3-1.1c0,0,0,0,0,0c7.3-3.4,15.3-5.1,24-5c0.1,0,0.1,0,0.2,0c1.5,0,3.5,0.1,3.4-2.2c-0.1-2.1-2.1-2-3.6-2.1
				c-3.5-0.2-6.5-0.9-8.4-4.2c-0.8-1.4-2.2-1.7-3.7-1.7c-0.1,0-0.3,0-0.4,0c0,0,0,0-0.1,0c-8.9,0.1-16.8,3-23,9.4
				c-1,1-2.6,2.4-1,3.9c0.3,0.3,0.7,0.5,1,0.5c0.9,0.1,1.8-0.9,2.6-1.3c3-1.7,6-3.6,9.2-4.8c0.6-0.2,1.2-0.4,1.8-0.6
				c0.3-0.1,0.7-0.2,1-0.2c0.2,0,0.4-0.1,0.6-0.1c0.2,0,0.4-0.1,0.6-0.1c0.3,0,0.6-0.1,0.9-0.1c0.2,0,0.4,0,0.6,0c0.1,0,0.3,0,0.4,0
				c0.1,0,0.2,0,0.2,0c-9.3,3.6-17.5,8.5-24.1,16c-1,1.1-2.8,2.1-1.4,3.8C335.4,280.9,335.7,281.1,336.1,281.2z"/>
			<path class="st6" d="M259.7,543.7c-0.9-0.3-1.7-0.5-2.5-0.6c-0.2,0-0.4-0.1-0.6-0.1c-1-0.1-1.9-0.1-2.8-0.1c-4,0.4-7,2.9-8.4,7
				c-0.3,0.9-0.5,1.9-0.7,3c-0.1,0.4-0.1,0.9-0.1,1.3c0,0.3,0,0.6,0,0.9c0,0.2,0,0.4,0,0.6c0,5.8,2.2,10.7,5.9,14.6
				c0.1,0.2,0.3,0.3,0.4,0.5c0.3,0.3,0.6,0.6,0.9,0.9c0.7,0.6,1.3,1.1,2.1,1.7c0.2,0.1,0.4,0.3,0.6,0.4c0.4,0.3,0.8,0.6,1.2,0.9
				c0.2,0.1,0.4,0.3,0.6,0.4c3.7,2.4,7.8,4.1,12.5,1.9c0.2-0.1,0.5-0.2,0.7-0.4c2.4-1.3,3.8-3.1,4.5-5.2c0.1-0.1,0.1-0.2,0.1-0.4
				c0.2-0.6,0.4-1.3,0.5-1.9c0-0.1,0-0.3,0.1-0.4c0.2-1.3,0.2-2.7,0.2-4.1c0-0.3,0-0.6,0-0.8C274.5,555.1,267.8,546.4,259.7,543.7z"
				/>
		</g>
		<path class="st1" d="M163.9,356.5c-7.6-7.2-20.5-6.7-28.2,0.5c-7,6.8-8.1,15.4-8.2,24.2c-0.1,5.3-1.8,5.7-5.8,3.3
			c-4.2-2.6-9-4.3-13.8-4.4c-12.8-0.2-18.3,3.3-19.1,13.6c-0.3,4,1,7.7,3.1,11.1c5,8.2,13,12.8,21.2,16.8
			c12.7,6.1,26.3,9.7,39.6,13.9c10.9,3.5,11.4,3.4,14.4-7.2c4-13.8,8.4-27.6,9-38.4C176.1,372.6,173,365.2,163.9,356.5z"/>
		<path class="st1" d="M109.7,300.6c3.6-7.7,8.2-15.1,8.7-24.8c-0.1-1.1-0.2-3-0.6-4.9c-1-4.9-3.7-8.1-9-8.5
			c-5.4-0.4-8.7,2.5-9.7,7.3c-1.1,5.7-2.8,6.9-7.7,3.1c-3.2-2.5-7.1-2.6-10.1,0.5c-3,3.1-1.6,6.3,0.2,9.6
			c5.7,10.1,16.3,13.3,25.4,18.7C108.3,302.5,109.1,301.8,109.7,300.6z"/>
	</g>
</g>
</svg>
